<?xml version="1.0" encoding="UTF-8" standalone="no"?>
<!-- Created with Inkscape (http://www.inkscape.org/) -->

<svg
   xmlns:dc="http://purl.org/dc/elements/1.1/"
   xmlns:cc="http://creativecommons.org/ns#"
   xmlns:rdf="http://www.w3.org/1999/02/22-rdf-syntax-ns#"
   xmlns:svg="http://www.w3.org/2000/svg"
   xmlns="http://www.w3.org/2000/svg"
   xmlns:sodipodi="http://sodipodi.sourceforge.net/DTD/sodipodi-0.dtd"
   xmlns:inkscape="http://www.inkscape.org/namespaces/inkscape"
   version="1.1"
   id="svg1967"
   xml:space="preserve"
   width="1066.6667"
   height="1066.6667"
   viewBox="0 0 1066.6667 1066.6667"
   sodipodi:docname="car-race-publicdomainvectors.org.svg"
   inkscape:version="0.92.4 (5da689c313, 2019-01-14)"><metadata
     id="metadata1973"><rdf:RDF><cc:Work
         rdf:about=""><dc:format>image/svg+xml</dc:format><dc:type
           rdf:resource="http://purl.org/dc/dcmitype/StillImage" /><dc:title></dc:title></cc:Work></rdf:RDF></metadata><defs
     id="defs1971"><clipPath
       clipPathUnits="userSpaceOnUse"
       id="clipPath1983"><path
         d="M 0,800 H 800 V 0 H 0 Z"
         id="path1981"
         inkscape:connector-curvature="0" /></clipPath></defs><sodipodi:namedview
     pagecolor="#ffffff"
     bordercolor="#666666"
     borderopacity="1"
     objecttolerance="10"
     gridtolerance="10"
     guidetolerance="10"
     inkscape:pageopacity="0"
     inkscape:pageshadow="2"
     inkscape:window-width="1920"
     inkscape:window-height="1018"
     id="namedview1969"
     showgrid="false"
     inkscape:zoom="0.71151983"
     inkscape:cx="567.23168"
     inkscape:cy="546.8927"
     inkscape:window-x="-8"
     inkscape:window-y="-8"
     inkscape:window-maximized="1"
     inkscape:current-layer="g1975" /><g
     id="g1975"
     inkscape:groupmode="layer"
     inkscape:label="car-race-publicdomainvectors.org"
     transform="matrix(1.3333333,0,0,-1.3333333,0,1066.6667)"><g
       id="g1977"><g
         id="g1979"
         clip-path="url(#clipPath1983)"><path
           d="m 670.864,291.094 c -0.752,0.803 -2.148,1.007 -3.276,-0.048 l -27.853,-26.07 c -0.482,-0.453 -1.417,-0.421 -2.021,0.222 l -8.889,9.499 c -0.754,0.804 -0.723,1.74 -0.08,2.342 l 13.041,12.207 c 0.644,0.603 0.686,1.85 -0.069,2.652 l -27.426,29.303 c -0.603,0.643 -1.536,0.675 -2.182,0.072 l -12.717,-11.906 c -0.485,-0.451 -1.58,-0.57 -2.182,0.073 l -8.439,9.016 c -0.603,0.645 -0.571,1.578 0.072,2.181 l 26.886,25.167 c 0.964,0.903 1.168,2.301 0.264,3.266 l -27.125,28.98 c -0.904,0.966 -2.3,1.168 -3.267,0.264 l -57.153,-53.496 c -1.127,-1.055 -1.038,-3.088 -0.135,-4.052 L 637.415,204.207 c 1.055,-1.127 2.765,-1.34 3.73,-0.436 l 57.636,53.948 c 0.965,0.905 1.018,2.463 0.114,3.429 z m -188.269,15.172 c -28.356,-10.424 -37.883,-38.83 -24.034,-76.497 l 15.143,-41.188 c 10.879,-29.597 36.534,-49.532 65.303,-38.956 26.079,9.587 40.253,34.298 21.916,84.178 -0.305,0.827 -1.231,1.427 -2.266,1.047 l -39.649,-12.932 c -1.734,-0.401 -1.876,-2.57 -1.418,-3.811 l 7.685,-20.905 c 0.761,-2.069 0.127,-4.181 -1.942,-4.943 -1.863,-0.684 -3.845,0.233 -4.606,2.304 l -23.664,64.366 c -0.835,2.276 0.287,4.334 1.944,4.943 1.654,0.608 3.69,0.182 4.756,-2.716 l 4.793,-13.038 c 0.915,-2.483 3.385,-3.454 5.249,-2.77 l 37.756,15.525 c 1.863,0.685 1.634,1.306 -0.421,6.894 -10.956,29.803 -36.328,49.608 -66.545,38.499 M 380.809,189.354 c -0.293,-1.084 0.074,-2.214 1.174,-2.288 7.041,-0.467 7.704,-0.511 7.613,1.485 l -1.456,21.314 c -0.236,3.109 -0.543,5.119 -1.203,5.162 -0.661,0.044 -1.204,-1.469 -1.877,-4.958 z M 367.292,291.92 c 0.293,1.086 1.494,2.554 2.814,2.465 l 42.911,-2.851 c 1.539,-0.102 2.551,-1.495 2.669,-3.05 l 19.692,-159.336 c 0.279,-2.45 -0.982,-4.796 -3.402,-4.635 l -35.647,2.368 c -1.322,0.089 -2.582,1.057 -2.714,2.39 l -2.208,33.298 c -0.147,1.117 -0.985,1.835 -2.083,1.909 l -11.883,0.79 c -0.88,0.056 -1.82,-0.764 -2.126,-2.071 l -6.331,-32.067 c -0.322,-1.526 -1.922,-2.305 -3.021,-2.231 l -36.307,2.411 c -1.981,0.132 -2.979,1.747 -2.392,3.917 z M 258.557,262.645 c 4.614,-2.593 7.641,2.788 12.613,11.628 2.486,4.422 1.201,8.434 -0.528,9.406 -0.961,0.542 -1.862,0.288 -2.512,-0.865 l -9.943,-17.683 c -0.76,-1.344 -0.59,-1.946 0.37,-2.486 m -50.132,-80.596 -32.869,18.486 c -1.347,0.756 -1.766,2.258 -0.901,3.795 l 78.371,139.352 c 0.757,1.344 2.26,1.764 3.412,1.117 l 42.863,-24.108 c 16.914,-9.511 29.746,-33.933 16.556,-57.38 -5.837,-10.381 -18.461,-28.329 -38.233,-20.75 l -0.218,-0.383 c 19.668,-19.916 12.642,-32.409 1.614,-52.015 -1.296,-2.307 -1.633,-5.153 1.623,-9.262 0.637,-1.117 0.648,-2.896 0.217,-3.665 -14.703,-26.138 -34.786,-16.867 -41.13,-13.298 -13.838,7.783 -17.661,22.581 -7.499,40.648 l 16.648,29.602 c 3.459,6.149 2.497,10.738 0.382,11.927 -1.151,0.65 -1.886,-0.204 -2.643,-1.549 l -34.59,-61.507 c -0.649,-1.154 -2.258,-1.766 -3.603,-1.01 m 328.001,458.552 c -0.656,-1.398 -0.445,-1.985 0.553,-2.454 4.792,-2.248 7.415,3.343 11.725,12.526 2.154,4.591 0.577,8.499 -1.22,9.342 -0.997,0.467 -1.878,0.149 -2.44,-1.048 z M 525.454,538.317 c -14.374,6.748 -19.272,21.226 -10.466,39.993 l 14.429,30.743 c 2.997,6.389 1.7,10.894 -0.495,11.926 -1.197,0.563 -1.865,-0.343 -2.522,-1.74 l -29.979,-63.884 c -0.563,-1.198 -2.123,-1.928 -3.521,-1.271 l -34.138,16.02 c -1.397,0.656 -1.927,2.123 -1.178,3.719 l 67.925,144.74 c 0.655,1.397 2.121,1.926 3.319,1.366 l 44.52,-20.893 c 17.569,-8.246 32.16,-31.659 20.729,-56.014 -5.058,-10.783 -16.33,-29.608 -36.608,-23.504 l -0.186,-0.399 c 21.076,-18.417 14.987,-31.395 5.431,-51.755 -1.124,-2.398 -1.251,-5.26 2.298,-9.121 0.717,-1.067 0.86,-2.838 0.486,-3.637 -12.742,-27.151 -33.456,-19.378 -40.044,-16.289 m -109.192,90.732 -3.493,21.077 c -0.532,3.073 -1.033,5.043 -1.694,5.023 -0.661,-0.018 -1.055,-1.573 -1.391,-5.114 l -2.245,-21.027 c -0.188,-1.109 0.286,-2.198 1.387,-2.164 7.054,0.208 7.715,0.229 7.436,2.205 m 45.256,-27.735 -11.283,-24.04 c -1.301,-2.774 -1.402,-5.744 -0.504,-8.345 l -20.856,-0.619 c -1.322,-0.04 -2.671,0.803 -2.931,2.118 l -5.389,32.934 c -0.252,1.096 -1.156,1.732 -2.257,1.699 l -11.903,-0.353 c -0.882,-0.026 -1.739,-0.935 -1.92,-2.261 l -3.226,-32.53 c -0.173,-1.549 -1.692,-2.478 -2.794,-2.509 l -36.371,-1.08 c -1.984,-0.058 -3.132,1.452 -2.757,3.669 l 24.822,159.809 c 0.19,1.108 1.247,2.684 2.568,2.723 l 42.985,1.275 c 1.543,0.046 2.685,-1.243 2.951,-2.779 z m -123.543,30.726 -37.75,-17.734 c -1.669,-0.612 -1.544,-2.783 -0.937,-3.956 l 10.21,-19.796 c 1.011,-1.961 0.643,-4.136 -1.316,-5.146 -1.765,-0.911 -3.845,-0.245 -4.856,1.715 l -31.436,60.955 c -1.111,2.155 -0.252,4.337 1.316,5.146 1.568,0.807 3.642,0.635 5.057,-2.107 l 6.367,-12.348 c 1.213,-2.352 3.787,-3.011 5.549,-2.102 l 35.554,20.074 c 1.763,0.908 1.459,1.497 -1.268,6.79 -14.557,28.222 -42.183,44.741 -70.798,29.983 -26.852,-13.848 -32.796,-43.214 -14.399,-78.886 l 20.116,-39.002 c 14.452,-28.028 42.375,-44.645 69.62,-30.593 10.296,5.312 18.2,12.988 22.167,23.542 -0.058,0.94 -0.018,1.905 0.153,2.904 l 2.576,16.585 c -0.608,11.922 -4.775,26.203 -13.548,43.215 -0.405,0.783 -1.398,1.264 -2.377,0.761 M 81.697,444.84 c -0.151,-1.008 -0.301,-2.576 -0.411,-4.129 -0.037,-0.49 -0.068,-1.13 -0.095,-1.665 -0.05,-0.753 -0.082,-1.609 -0.094,-2.439 -0.007,-0.407 -0.01,-0.852 -0.01,-1.276 0.002,-1.023 0,-2.107 0.031,-3.205 0.009,-0.281 0.019,-0.573 0.031,-0.859 0.069,-1.26 0.153,-2.562 0.261,-3.879 0.013,-0.143 0.025,-0.286 0.037,-0.432 0.109,-1.466 0.268,-2.952 0.489,-4.431 0.226,-1.49 0.445,-2.982 0.704,-4.445 0.219,-1.467 0.566,-2.892 0.902,-4.269 0.331,-1.376 0.681,-2.702 1.024,-3.955 0.171,-0.641 0.351,-1.264 0.54,-1.861 0.182,-0.565 0.377,-1.109 0.574,-1.628 0.765,-2.143 1.501,-3.895 2.035,-5.112 0.533,-1.217 0.883,-1.896 0.883,-1.896 0,0 0.01,0.777 -0.056,2.104 -0.065,1.328 -0.187,3.211 -0.452,5.43 -0.135,1.108 -0.24,2.314 -0.357,3.588 -0.118,1.277 -0.25,2.618 -0.44,3.993 -0.18,1.378 -0.382,2.794 -0.535,4.245 -0.161,1.449 -0.366,2.913 -0.569,4.379 -0.142,0.932 -0.264,1.868 -0.387,2.797 -0.121,0.906 -0.241,1.805 -0.365,2.693 -0.114,0.84 -0.228,1.67 -0.353,2.479 -0.068,0.446 -0.141,0.888 -0.216,1.322 -0.048,0.313 -0.096,0.622 -0.142,0.926 -0.099,0.657 -0.2,1.294 -0.299,1.908 -0.077,0.504 -0.155,0.986 -0.226,1.448 -0.225,1.182 -0.432,2.294 -0.626,3.31 -0.127,0.696 -0.254,1.332 -0.372,1.9 -0.242,1.16 -0.487,2.596 -0.683,3.282 -0.278,1.11 -0.461,2.206 -0.473,2.206 h -0.003 c -0.017,0 -0.185,-1.29 -0.347,-2.529 m 8.063,-35.614 c 0.17,-0.641 0.348,-1.263 0.531,-1.859 0.183,-0.568 0.378,-1.113 0.576,-1.635 0.76,-2.143 1.493,-3.897 2.025,-5.114 0.531,-1.217 0.882,-1.894 0.882,-1.894 0,0 0.011,0.776 -0.053,2.103 -0.065,1.327 -0.183,3.209 -0.443,5.426 -0.138,1.105 -0.237,2.312 -0.348,3.587 -0.113,1.275 -0.242,2.614 -0.424,3.988 -0.173,1.377 -0.37,2.792 -0.512,4.244 -0.151,1.448 -0.35,2.911 -0.54,4.375 -0.148,1 -0.265,2.001 -0.385,2.994 -0.118,0.974 -0.239,1.939 -0.367,2.886 -0.113,0.909 -0.228,1.802 -0.348,2.667 -0.068,0.485 -0.143,0.961 -0.219,1.427 -0.049,0.334 -0.096,0.664 -0.14,0.99 -0.099,0.712 -0.203,1.396 -0.303,2.047 -0.081,0.554 -0.16,1.075 -0.232,1.561 -0.206,1.103 -0.396,2.133 -0.569,3.065 -0.12,0.668 -0.235,1.256 -0.338,1.753 -0.213,1.014 -0.447,1.788 -0.643,2.291 -0.256,0.952 -0.426,1.469 -0.443,1.402 -0.03,-0.115 -0.195,-0.834 -0.357,-2.015 -0.157,-1.011 -0.314,-2.317 -0.434,-3.843 -0.041,-0.487 -0.078,-0.997 -0.107,-1.525 -0.053,-0.748 -0.089,-1.537 -0.109,-2.358 -0.008,-0.402 -0.014,-0.812 -0.018,-1.228 -0.008,-1.016 -0.016,-2.076 0.007,-3.164 0.006,-0.277 0.016,-0.558 0.026,-0.839 0.059,-1.25 0.133,-2.536 0.233,-3.838 0.009,-0.143 0.021,-0.284 0.03,-0.427 0.098,-1.453 0.247,-2.923 0.457,-4.389 0.218,-1.491 0.425,-2.985 0.678,-4.448 0.209,-1.47 0.55,-2.895 0.88,-4.273 0.327,-1.379 0.67,-2.704 1.007,-3.957 m 2.243,16.827 c 0.01,-0.141 0.019,-0.281 0.026,-0.421 0.089,-1.44 0.225,-2.895 0.424,-4.347 0.209,-1.493 0.408,-2.988 0.651,-4.452 0.199,-1.472 0.535,-2.899 0.86,-4.278 0.322,-1.38 0.659,-2.707 0.992,-3.96 0.168,-0.641 0.341,-1.26 0.522,-1.857 0.182,-0.569 0.379,-1.116 0.574,-1.64 0.757,-2.146 1.488,-3.899 2.018,-5.116 0.528,-1.218 0.879,-1.895 0.879,-1.895 0,0 0.011,0.776 -0.051,2.103 -0.063,1.327 -0.179,3.207 -0.435,5.422 -0.137,1.105 -0.231,2.312 -0.333,3.585 -0.109,1.275 -0.235,2.613 -0.408,3.988 -0.168,1.374 -0.361,2.79 -0.495,4.239 -0.14,1.449 -0.329,2.912 -0.511,4.376 -0.153,1.062 -0.263,2.133 -0.383,3.189 -0.115,1.041 -0.236,2.071 -0.367,3.08 -0.113,0.976 -0.226,1.93 -0.345,2.854 -0.069,0.52 -0.143,1.032 -0.218,1.53 -0.049,0.357 -0.097,0.707 -0.141,1.05 -0.095,0.769 -0.204,1.502 -0.307,2.19 -0.083,0.604 -0.163,1.163 -0.238,1.672 -0.185,1.025 -0.358,1.973 -0.514,2.821 -0.11,0.638 -0.213,1.179 -0.302,1.605 -0.182,0.871 -0.405,1.474 -0.604,1.795 -0.227,0.781 -0.382,1.185 -0.407,1.083 -0.045,-0.172 -0.207,-0.874 -0.365,-1.986 -0.165,-1.013 -0.328,-2.304 -0.459,-3.804 -0.044,-0.483 -0.084,-0.983 -0.117,-1.506 -0.059,-0.744 -0.1,-1.527 -0.124,-2.342 -0.012,-0.395 -0.02,-0.8 -0.029,-1.209 -0.016,-1.009 -0.032,-2.058 -0.017,-3.135 0.006,-0.276 0.011,-0.551 0.02,-0.83 0.05,-1.237 0.114,-2.512 0.204,-3.804 m -15.38,21.196 c 0,0 -0.042,-0.18 -0.101,-0.496 0.067,0.033 0.138,0.067 0.204,0.099 -0.061,0.242 -0.103,0.397 -0.103,0.397 m 20.676,-21.862 c 0.009,-0.139 0.015,-0.277 0.025,-0.415 0.074,-1.427 0.198,-2.868 0.39,-4.306 0.198,-1.496 0.39,-2.994 0.623,-4.458 0.189,-1.472 0.52,-2.9 0.84,-4.28 0.314,-1.382 0.646,-2.711 0.974,-3.965 0.166,-0.639 0.337,-1.257 0.512,-1.853 0.182,-0.572 0.382,-1.12 0.574,-1.647 0.755,-2.147 1.482,-3.9 2.009,-5.117 0.528,-1.218 0.878,-1.895 0.878,-1.895 0,0 0.013,0.777 -0.047,2.102 -0.059,1.326 -0.174,3.207 -0.427,5.42 -0.138,1.102 -0.227,2.309 -0.322,3.583 -0.105,1.272 -0.225,2.61 -0.392,3.982 -0.164,1.375 -0.35,2.79 -0.472,4.239 -0.133,1.448 -0.313,2.911 -0.485,4.375 -0.157,1.129 -0.261,2.264 -0.378,3.386 -0.114,1.108 -0.238,2.201 -0.37,3.273 -0.113,1.041 -0.225,2.059 -0.342,3.04 -0.067,0.557 -0.145,1.103 -0.218,1.632 -0.051,0.381 -0.1,0.751 -0.142,1.114 -0.092,0.825 -0.206,1.606 -0.309,2.33 -0.087,0.655 -0.169,1.254 -0.243,1.787 -0.168,0.946 -0.321,1.812 -0.458,2.575 -0.103,0.61 -0.198,1.103 -0.271,1.458 -0.152,0.726 -0.361,1.158 -0.561,1.295 -0.201,0.612 -0.342,0.904 -0.374,0.768 -0.06,-0.231 -0.218,-0.918 -0.374,-1.959 -0.171,-1.015 -0.343,-2.292 -0.482,-3.767 -0.049,-0.476 -0.092,-0.972 -0.129,-1.484 -0.063,-0.742 -0.109,-1.518 -0.14,-2.327 -0.013,-0.389 -0.026,-0.787 -0.035,-1.191 -0.027,-1 -0.052,-2.04 -0.045,-3.108 0.005,-0.27 0.011,-0.543 0.018,-0.817 0.04,-1.228 0.094,-2.491 0.173,-3.77 m 558.565,-17.669 c 3.248,0 5.892,3.36 5.892,7.491 0,4.131 -2.644,7.491 -5.892,7.491 -3.25,0 -5.892,-3.36 -5.892,-7.491 0,-4.131 2.642,-7.491 5.892,-7.491 m -553.27,17.003 c 0.008,-0.137 0.015,-0.274 0.02,-0.411 0.066,-1.413 0.178,-2.841 0.36,-4.265 0.189,-1.496 0.37,-2.994 0.594,-4.461 0.179,-1.473 0.507,-2.903 0.818,-4.286 0.311,-1.383 0.638,-2.711 0.961,-3.967 0.164,-0.638 0.332,-1.253 0.501,-1.849 0.181,-0.574 0.383,-1.126 0.574,-1.654 0.752,-2.146 1.476,-3.903 2.003,-5.12 0.526,-1.217 0.872,-1.894 0.872,-1.894 0,0 0.016,0.776 -0.042,2.101 -0.058,1.327 -0.168,3.205 -0.419,5.418 -0.137,1.102 -0.22,2.307 -0.311,3.579 -0.1,1.273 -0.215,2.609 -0.376,3.982 -0.156,1.373 -0.338,2.787 -0.45,4.237 -0.124,1.446 -0.293,2.908 -0.458,4.373 -0.16,1.194 -0.258,2.395 -0.373,3.581 -0.111,1.175 -0.237,2.334 -0.371,3.465 -0.114,1.11 -0.225,2.191 -0.338,3.229 -0.07,0.594 -0.148,1.175 -0.222,1.739 -0.05,0.399 -0.099,0.791 -0.139,1.172 -0.093,0.883 -0.208,1.712 -0.313,2.471 -0.092,0.706 -0.174,1.343 -0.249,1.9 -0.149,0.867 -0.285,1.651 -0.403,2.331 -0.098,0.582 -0.178,1.027 -0.237,1.31 -0.12,0.58 -0.319,0.842 -0.521,0.798 -0.173,0.44 -0.299,0.62 -0.341,0.449 -0.073,-0.287 -0.227,-0.959 -0.379,-1.929 -0.181,-1.019 -0.358,-2.282 -0.505,-3.73 -0.055,-0.47 -0.102,-0.959 -0.144,-1.466 -0.066,-0.736 -0.118,-1.507 -0.153,-2.308 -0.017,-0.385 -0.032,-0.777 -0.046,-1.173 -0.036,-0.992 -0.068,-2.023 -0.069,-3.081 0.003,-0.267 0.007,-0.535 0.013,-0.806 0.03,-1.217 0.076,-2.468 0.143,-3.735 m -26.781,14.977 c -0.068,-1.135 -0.09,-2.362 -0.079,-3.658 0.01,-1.297 0.02,-2.667 0.09,-4.079 0.086,-1.411 0.192,-2.868 0.331,-4.347 0.12,-1.479 0.292,-2.976 0.521,-4.468 0.236,-1.49 0.464,-2.981 0.733,-4.442 0.23,-1.466 0.582,-2.89 0.921,-4.266 0.337,-1.374 0.691,-2.698 1.041,-3.949 0.334,-1.253 0.713,-2.423 1.124,-3.487 0.767,-2.143 1.506,-3.895 2.042,-5.111 0.534,-1.216 0.888,-1.895 0.888,-1.895 0,0 0.009,0.776 -0.06,2.104 -0.068,1.33 -0.194,3.213 -0.462,5.433 -0.273,2.218 -0.432,4.836 -0.824,7.585 -0.185,1.378 -0.393,2.796 -0.556,4.247 -0.17,1.45 -0.385,2.914 -0.594,4.381 -0.473,2.925 -0.816,5.869 -1.327,8.61 -0.228,1.376 -0.452,2.707 -0.661,3.966 -0.24,1.262 -0.468,2.454 -0.68,3.556 -0.303,1.631 -0.615,3.056 -0.876,4.211 -0.467,-0.236 -0.89,-0.454 -1.311,-0.667 -0.107,-1.072 -0.206,-2.315 -0.261,-3.724 M 246.341,348.26 c -13.588,8.032 -22.822,23.61 -22.822,41.473 0,26.057 19.645,47.255 43.794,47.255 24.147,0 43.794,-21.198 43.794,-47.255 0,-22.999 -15.311,-42.204 -35.511,-46.396 l 12.345,-6.942 c 19.887,8.594 33.905,29.226 33.905,53.338 0,31.831 -24.415,57.636 -54.533,57.636 -30.121,0 -54.534,-25.804 -54.534,-57.636 0,-21.816 11.467,-40.802 28.382,-50.588 l 4.79,8.516 c 0.118,0.21 0.26,0.401 0.39,0.599 m 50.652,18.363 -7.434,4.991 c -1.989,-2.96 -4.415,-5.477 -7.214,-7.484 l 5.295,-7.392 c 3.635,2.66 6.802,6.018 9.353,9.885 m -16.468,49.913 4.697,7.806 c -1.956,1.204 -4.024,2.216 -6.183,3.013 l -3.12,-8.622 c 1.587,-0.573 3.137,-1.313 4.606,-2.197 m -1.336,-64.371 -3.156,8.608 c -1.592,-0.583 -3.241,-1.005 -4.9,-1.259 l 1.383,-9.108 c 2.301,0.36 4.531,0.955 6.673,1.759 m -11.876,27.325 c 5.647,0 10.242,4.595 10.242,10.243 0,5.649 -4.595,10.244 -10.242,10.244 -5.65,0 -10.245,-4.595 -10.245,-10.244 0,-5.648 4.595,-10.243 10.245,-10.243 m -11.307,48.021 3.009,-8.669 c 3.204,1.11 6.633,1.563 9.98,1.342 l 0.613,9.2 c -0.761,0.052 -1.524,0.086 -2.295,0.086 -3.946,0 -7.745,-0.694 -11.307,-1.959 m 34.06,-20.438 c 1.876,-2.985 3.238,-6.271 4.047,-9.771 l 8.642,2.001 c -1.034,4.532 -2.781,8.76 -5.109,12.532 z m 13.767,-16.981 h -8.479 c 0,-2.864 -0.259,-3.774 -0.539,-5.526 l 8.485,-1.282 c 0.344,2.186 0.533,3.944 0.533,6.808 m -55.878,21.423 -6.617,6.118 c -1.517,-1.671 -2.895,-3.489 -4.124,-5.429 l 7.526,-4.846 c 0.954,1.482 2.035,2.88 3.215,4.157 M 244.81,372 c -0.955,1.47 -1.794,3.039 -2.495,4.664 l -8.172,-3.524 c 0.895,-2.112 1.954,-4.124 3.163,-6.017 z m -14.002,18.328 8.848,-0.122 c 0.05,3.617 0.668,7.148 1.839,10.495 l -8.391,2.935 c -1.43,-4.154 -2.235,-8.634 -2.296,-13.308 m 42.356,-45.622 -12.749,7.17 c -1.56,0.877 -3.328,1.34 -5.115,1.34 -0.039,0 -0.077,-0.007 -0.116,-0.009 l 2.988,7.725 c -3.163,1.225 -6.074,3.061 -8.655,5.457 l -6.15,-6.62 c 2.97,-2.814 6.374,-5.082 10.067,-6.744 -2.313,-0.421 -4.429,-1.611 -6.031,-3.379 -13.282,7.671 -22.338,22.761 -22.338,40.087 0,25.07 18.953,45.465 42.248,45.465 23.294,0 42.248,-20.395 42.248,-45.465 0,-1.721 -0.099,-3.419 -0.273,-5.091 -2.144,-20.606 -17.132,-37.091 -36.124,-39.936 m -5.851,53.878 c -4.882,0 -8.852,-3.971 -8.852,-8.851 0,-4.88 3.97,-8.85 8.852,-8.85 4.879,0 8.849,3.97 8.849,8.85 0,4.88 -3.97,8.851 -8.849,8.851 m 368.88,-4.188 4.88,3 c -1.828,2.973 -3.152,6.371 -3.939,10.097 l -5.605,-1.183 c 0.923,-4.371 2.493,-8.379 4.664,-11.914 m -5.57,20.941 2.736,0.529 h 2.409 v -0.557 c 0,1.805 0.422,3.626 0.676,5.37 l -5.477,0.848 c -0.289,-1.978 -0.386,-3.978 -0.396,-6.018 0,-0.071 0.017,-0.051 0.017,-0.12 z m 6.206,21.681 4.77,-3.174 c 2.087,3.135 4.69,5.576 7.531,7.056 l -2.65,5.079 c -3.694,-1.927 -7.029,-5.026 -9.651,-8.961 m 12.096,-21.809 c 0,-4.707 3.114,-8.537 6.939,-8.537 3.826,0 6.938,3.83 6.938,8.537 0,4.709 -3.112,8.537 -6.938,8.537 -3.825,0 -6.939,-3.828 -6.939,-8.537 m 6.855,33.593 0.084,-5.967 c 1.615,0 3.219,-0.432 4.769,-0.984 l 1.926,5.589 c -2.168,0.775 -4.421,1.362 -6.695,1.362 z m 6.776,-59.305 2.632,-5.088 c 3.701,1.916 7.047,5.008 9.676,8.942 l -4.762,3.182 c -2.093,-3.132 -4.703,-5.565 -7.546,-7.036 m 8.071,43.569 c 1.833,-2.969 3.165,-6.364 3.956,-10.087 l 5.602,1.19 c -0.928,4.368 -2.503,8.375 -4.683,11.907 z m 9.531,-17.857 v 0.113 l -5.32,-0.113 c 0,-1.855 0.175,-3.704 -0.089,-5.5 l 5.38,-0.832 c 0.305,2.07 0.029,4.201 0.029,6.332 m -24.268,-32.277 -0.026,5.37 c -1.629,0 -3.249,0.016 -4.813,0.581 l -1.944,-5.132 c 2.19,-0.792 4.462,-0.819 6.757,-0.819 z m -27.419,32.277 c 0,20.619 12.288,37.395 27.393,37.395 15.104,0 27.393,-16.776 27.393,-37.395 0,-20.619 -12.289,-37.395 -27.393,-37.395 -15.105,0 -27.393,16.776 -27.393,37.395 m -23.815,-20.94 c 0,0 -1.027,-0.038 -2.956,-0.106 -1.927,-0.074 -4.756,-0.183 -8.354,-0.321 -7.194,-0.314 -17.466,-0.802 -29.779,-1.551 -6.157,-0.361 -12.829,-0.761 -19.877,-1.259 -7.048,-0.478 -14.486,-0.963 -22.169,-1.571 -7.683,-0.607 -15.632,-1.138 -23.692,-1.848 -8.064,-0.679 -16.257,-1.37 -24.448,-2.061 -8.187,-0.756 -16.373,-1.513 -24.431,-2.257 -8.059,-0.723 -15.978,-1.584 -23.649,-2.337 -7.671,-0.745 -15.076,-1.577 -22.102,-2.338 -7.026,-0.744 -13.663,-1.521 -19.79,-2.241 -12.254,-1.42 -22.452,-2.738 -29.59,-3.688 -3.566,-0.492 -6.369,-0.879 -8.28,-1.144 -1.911,-0.27 -2.93,-0.414 -2.93,-0.414 0,0 1.028,0.037 2.955,0.106 1.929,0.074 4.756,0.185 8.354,0.324 7.195,0.314 17.466,0.805 29.779,1.554 6.157,0.365 12.829,0.761 19.877,1.261 7.049,0.482 14.487,0.96 22.169,1.57 7.686,0.603 15.631,1.144 23.693,1.843 8.064,0.68 16.256,1.369 24.448,2.059 8.186,0.754 16.373,1.509 24.43,2.254 8.062,0.712 15.98,1.582 23.651,2.333 7.671,0.746 15.076,1.571 22.101,2.335 7.028,0.745 13.664,1.521 19.79,2.244 12.253,1.42 22.454,2.738 29.59,3.69 3.568,0.495 6.37,0.883 8.281,1.147 1.91,0.271 2.929,0.416 2.929,0.416 m -387.05,54.212 c -6.601,-0.67 -13.202,-1.325 -19.796,-2.047 -7.17,-0.758 -14.339,-1.537 -21.501,-2.361 l -10.746,-1.238 -10.738,-1.292 c -7.154,-0.919 -14.315,-1.763 -21.461,-2.766 -0.013,-0.805 0.286,-1.585 0.657,-2.297 0.383,-0.711 0.86,-1.363 1.362,-1.996 1.024,-1.248 2.213,-2.347 3.44,-3.387 2.473,-2.063 5.172,-3.84 7.969,-5.436 2.799,-1.595 5.725,-2.977 8.748,-4.12 3.02,-1.152 6.134,-2.089 9.332,-2.72 l 0.124,-0.023 0.103,0.008 1.993,0.206 c 0.672,0.051 1.329,0.145 1.968,0.296 1.294,0.26 2.596,0.5 3.842,0.882 1.264,0.341 2.528,0.691 3.752,1.128 1.234,0.413 2.478,0.812 3.677,1.306 1.208,0.48 2.435,0.918 3.615,1.449 1.188,0.52 2.39,1.012 3.566,1.556 l 3.52,1.644 3.475,1.736 c 1.16,0.573 2.291,1.205 3.431,1.816 1.146,0.605 2.266,1.253 3.39,1.898 1.127,0.637 2.246,1.288 3.348,1.97 1.105,0.674 2.222,1.332 3.304,2.049 0.364,0.237 0.732,0.473 1.099,0.706 0.866,1.327 1.741,2.617 2.632,3.831 0.843,1.166 1.7,2.26 2.558,3.317 -0.51,-0.391 -1.027,-0.778 -1.546,-1.163 -0.992,-0.778 -2.056,-1.477 -3.092,-2.209 -1.026,-0.742 -2.113,-1.412 -3.171,-2.114 -1.058,-0.707 -2.152,-1.36 -3.235,-2.03 -1.08,-0.678 -2.178,-1.324 -3.284,-1.958 -1.102,-0.642 -2.2,-1.288 -3.326,-1.889 -1.124,-0.601 -2.224,-1.25 -3.357,-1.832 l -3.39,-1.77 -3.435,-1.677 c -1.147,-0.557 -2.317,-1.056 -3.475,-1.587 -1.152,-0.544 -2.339,-0.989 -3.514,-1.481 -1.17,-0.502 -2.358,-0.933 -3.549,-1.367 -1.183,-0.462 -2.389,-0.831 -3.596,-1.195 -1.201,-0.408 -2.421,-0.666 -3.641,-0.951 -0.611,-0.162 -1.219,-0.266 -1.831,-0.328 l -1.745,-0.232 c -3.037,0.51 -6.051,1.264 -8.991,2.261 -2.986,1.009 -5.91,2.228 -8.75,3.623 -2.828,1.414 -5.578,3.014 -8.119,4.906 -1.268,0.947 -2.47,1.981 -3.573,3.117 -0.535,0.579 -1.049,1.182 -1.474,1.849 -0.413,0.669 -0.762,1.404 -0.811,2.208 7.204,0.41 14.391,0.978 21.588,1.47 l 10.785,0.827 10.779,0.88 c 7.187,0.589 14.369,1.222 21.548,1.875 5.626,0.49 11.249,1.031 16.87,1.57 0.897,1.08 1.79,2.11 2.672,3.082 m -89.811,-9.824 c -0.17,1.085 -0.803,2.023 -1.804,2.842 0.009,-0.059 0.108,-0.785 0.282,-2.049 0.075,-0.652 0.165,-1.44 0.269,-2.348 0.112,-0.909 0.241,-1.929 0.327,-3.039 0.085,-1.107 0.246,-2.308 0.36,-3.574 0.065,-0.784 0.133,-1.603 0.201,-2.435 0.644,4.122 0.801,7.85 0.365,10.603 m 489.73,-34.511 c 0.925,-4.016 2.185,-8.186 3.93,-11.925 1.735,-3.773 3.956,-7.237 6.585,-10.196 1.547,-1.747 3.243,-3.293 5.015,-4.676 -8.431,8.865 -13.84,22.525 -13.84,37.86 0,8.335 1.597,16.177 4.406,23.022 -0.074,-0.125 -0.152,-0.241 -0.226,-0.367 -1.755,-2.982 -3.268,-6.332 -4.404,-9.968 -1.156,-3.625 -1.896,-7.547 -2.176,-11.596 -0.264,-4.011 -0.065,-8.287 0.71,-12.154 m 8.794,11.063 c 0,-21.805 13.254,-39.545 29.545,-39.545 16.291,0 29.544,17.74 29.544,39.545 0,21.806 -13.253,39.545 -29.544,39.546 -16.291,0 -29.545,-17.74 -29.545,-39.546 m -16.651,-37.647 c -3.211,0.377 -6.583,0.682 -10.091,0.926 l -4.782,5.111 c -2.032,2.169 -4.857,3.413 -7.753,3.413 -2.593,0 -5.072,-0.982 -6.989,-2.772 l -5.365,-5.022 c -79.318,-0.298 -200.703,-21.276 -258.57,-27.432 32.577,56.921 -13.067,107.934 -55.309,99.7 -5.767,-1.123 -10.936,-2.78 -15.583,-4.867 -0.253,-0.156 -0.699,-0.431 -1.371,-0.848 -0.526,-0.326 -1.177,-0.727 -1.943,-1.199 -0.741,-0.502 -1.591,-1.078 -2.544,-1.721 -1.901,-1.301 -4.135,-2.964 -6.57,-5.005 -2.41,-2.057 -5.069,-4.464 -7.627,-7.369 -2.577,-2.886 -5.13,-6.217 -7.407,-10.005 -2.294,-3.781 -4.269,-8.037 -5.751,-12.664 -1.502,-4.62 -2.447,-9.624 -2.797,-14.789 -0.157,-2.582 -0.16,-5.203 0.011,-7.82 0.088,-1.305 0.216,-2.611 0.393,-3.902 0.172,-1.281 0.419,-2.611 0.648,-3.724 1.235,-5.269 2.985,-10.448 5.339,-15.199 2.347,-4.761 5.313,-9.109 8.791,-12.809 3.465,-3.711 7.446,-6.74 11.58,-9.074 1.534,-0.871 3.087,-1.617 4.643,-2.305 l -2.266,-4.029 c -1.535,0.489 -3.08,1.028 -4.638,1.678 -4.821,2.001 -9.696,4.837 -14.144,8.573 -4.46,3.719 -8.482,8.306 -11.826,13.425 -1.206,1.849 -2.302,3.775 -3.346,5.735 -0.196,-7.382 -0.076,-13.338 -0.334,-16.794 -19.36,1.35 -35.475,3.347 -48.885,5.701 1.288,-0.007 2.58,-0.003 3.873,0.025 2.207,0.056 4.415,0.15 6.626,0.296 2.211,0.14 4.424,0.324 6.644,0.595 2.218,0.242 4.438,0.626 6.668,1.137 2.229,0.525 4.465,1.128 6.777,2.462 l 1.601,0.924 -0.696,1.537 c -0.325,0.72 -0.636,1.46 -0.981,2.153 l -1.114,1.986 c -0.792,1.268 -1.599,2.517 -2.451,3.712 -0.843,1.207 -1.713,2.38 -2.599,3.539 -0.876,1.165 -1.806,2.288 -2.731,3.406 -1.864,2.231 -3.744,4.437 -5.717,6.558 -1.958,2.134 -3.958,4.227 -6.036,6.244 l 4.942,-7.114 c 1.615,-2.387 3.241,-4.759 4.797,-7.165 l 2.297,-3.626 c 0.755,-1.208 1.496,-2.427 2.192,-3.655 0.712,-1.226 1.356,-2.469 1.982,-3.71 l 0.846,-1.862 c -1.233,-0.407 -2.613,-0.714 -4.002,-0.926 -2.045,-0.327 -4.146,-0.528 -6.261,-0.696 -2.114,-0.171 -4.25,-0.264 -6.389,-0.31 -2.137,-0.054 -4.285,-0.059 -6.433,-0.026 -4.296,0.016 -8.604,0.139 -12.908,0.372 -2.154,0.11 -4.303,0.27 -6.455,0.412 -2.153,0.146 -4.305,0.291 -6.453,0.485 -2.151,0.172 -4.296,0.395 -6.443,0.618 l -6.426,0.738 c -4.283,0.506 -8.555,1.107 -12.797,1.832 -2.124,0.36 -4.246,0.716 -6.359,1.121 -2.109,0.418 -4.214,0.855 -6.301,1.356 -2.082,0.509 -4.171,1.002 -6.226,1.596 -1.566,0.444 -3.102,0.954 -4.628,1.49 1.32,2.515 2.65,5.024 3.945,7.555 1.564,3.04 3.094,6.104 4.588,9.188 -1.053,-1.435 -2.07,-2.892 -3.102,-4.341 l -6.385,15.796 c 0,0 22.966,-2.348 26.372,-1.195 1.516,0.514 2.973,1.428 4.359,2.648 -0.064,0.145 -0.123,0.275 -0.195,0.442 -0.523,1.217 -1.248,2.973 -1.996,5.122 -0.188,0.532 -0.392,1.084 -0.574,1.66 -0.163,0.594 -0.328,1.209 -0.49,1.844 -0.319,1.258 -0.64,2.588 -0.945,3.972 -0.307,1.383 -0.628,2.815 -0.799,4.29 -0.214,1.469 -0.385,2.967 -0.566,4.466 -0.171,1.408 -0.273,2.824 -0.326,4.222 -0.006,0.137 -0.01,0.272 -0.016,0.408 -0.057,1.253 -0.094,2.494 -0.114,3.7 -0.005,0.266 -0.006,0.531 -0.009,0.794 0.01,1.049 0.05,2.069 0.093,3.053 0.018,0.39 0.036,0.776 0.056,1.155 0.041,0.794 0.097,1.559 0.167,2.29 0.046,0.501 0.098,0.983 0.157,1.449 0.155,1.422 0.341,2.671 0.527,3.691 0.149,0.9 0.3,1.556 0.389,1.902 0.049,0.205 0.161,0.139 0.305,-0.133 0.205,0.227 0.392,0.135 0.483,-0.299 0.042,-0.214 0.113,-0.61 0.201,-1.164 0.101,-0.595 0.218,-1.295 0.35,-2.086 0.075,-0.579 0.159,-1.255 0.254,-2.012 0.106,-0.796 0.224,-1.673 0.314,-2.613 0.041,-0.4 0.089,-0.811 0.14,-1.235 0.075,-0.594 0.154,-1.21 0.221,-1.842 0.112,-1.094 0.224,-2.237 0.337,-3.415 0.136,-1.192 0.263,-2.416 0.372,-3.658 0.114,-1.25 0.205,-2.517 0.37,-3.779 0.154,-1.462 0.314,-2.924 0.429,-4.371 0.102,-1.449 0.278,-2.861 0.429,-4.234 0.154,-1.372 0.265,-2.707 0.363,-3.978 0.082,-1.273 0.161,-2.478 0.297,-3.579 0.248,-2.21 0.354,-4.088 0.41,-5.413 0.002,-0.021 0.002,-0.035 0.003,-0.054 0.961,0.925 1.884,1.999 2.77,3.191 -0.137,0.371 -0.274,0.743 -0.413,1.144 -0.185,0.532 -0.391,1.087 -0.573,1.667 -0.158,0.592 -0.321,1.208 -0.481,1.839 -0.314,1.258 -0.628,2.59 -0.927,3.976 -0.303,1.385 -0.621,2.818 -0.778,4.293 -0.206,1.47 -0.37,2.971 -0.54,4.47 -0.163,1.396 -0.251,2.798 -0.292,4.183 -0.006,0.133 -0.011,0.268 -0.013,0.402 -0.047,1.242 -0.074,2.469 -0.087,3.665 -0.002,0.263 -0.003,0.521 -0.003,0.783 0.017,1.038 0.066,2.052 0.118,3.025 0.021,0.386 0.044,0.763 0.065,1.137 0.046,0.787 0.106,1.548 0.182,2.273 0.049,0.493 0.104,0.969 0.167,1.43 0.167,1.396 0.358,2.63 0.552,3.652 0.148,0.831 0.294,1.471 0.398,1.876 0.056,0.238 0.153,0.285 0.272,0.185 0.205,0.407 0.381,0.485 0.441,0.194 0.03,-0.139 0.087,-0.489 0.168,-1.015 0.081,-0.508 0.182,-1.128 0.293,-1.839 0.076,-0.606 0.162,-1.318 0.259,-2.125 0.111,-0.833 0.231,-1.759 0.32,-2.753 0.037,-0.421 0.087,-0.854 0.138,-1.298 0.075,-0.628 0.155,-1.278 0.222,-1.946 0.11,-1.152 0.22,-2.357 0.332,-3.602 0.141,-1.254 0.268,-2.543 0.376,-3.85 0.11,-1.315 0.196,-2.649 0.367,-3.976 0.144,-1.463 0.296,-2.924 0.4,-4.37 0.093,-1.447 0.264,-2.859 0.41,-4.232 0.145,-1.372 0.254,-2.706 0.345,-3.975 0.05,-0.835 0.106,-1.625 0.173,-2.39 0.514,0.849 1.012,1.737 1.49,2.654 -0.191,0.82 -0.381,1.654 -0.565,2.521 -0.297,1.385 -0.608,2.821 -0.757,4.298 -0.196,1.471 -0.35,2.972 -0.512,4.472 -0.152,1.384 -0.23,2.77 -0.26,4.142 -0.003,0.134 -0.52,0.266 -0.522,0.399 -0.038,1.23 -0.57,2.445 -0.57,3.629 v 0.772 c 0,1.028 0.596,2.031 0.657,2.997 0.025,0.379 0.306,0.752 0.332,1.119 0.052,0.781 0.246,1.535 0.325,2.257 0.051,0.485 0.178,0.956 0.245,1.411 0.173,1.369 0.403,2.588 0.605,3.614 0.144,0.759 0.313,1.385 0.432,1.846 0.064,0.274 0.15,0.433 0.242,0.503 0.206,0.59 0.37,0.839 0.402,0.694 0.014,-0.071 0.061,-0.372 0.133,-0.867 0.065,-0.428 0.146,-0.962 0.24,-1.597 0.075,-0.627 0.164,-1.38 0.264,-2.237 0.112,-0.871 0.235,-1.843 0.324,-2.894 0.036,-0.44 0.084,-0.894 0.139,-1.36 0.073,-0.66 0.156,-1.345 0.223,-2.051 0.106,-1.206 0.215,-2.477 0.329,-3.787 0.141,-1.314 0.271,-2.67 0.375,-4.045 0.109,-1.379 0.189,-2.779 0.363,-4.17 0.136,-1.463 0.278,-2.924 0.375,-4.37 0.015,-0.286 0.046,-0.564 0.067,-0.846 0.267,0.694 0.525,1.393 0.771,2.098 -0.075,0.709 -0.159,1.412 -0.232,2.123 -0.157,1.502 -0.219,3.008 -0.233,4.494 -0.031,1.483 -0.035,2.944 -0.019,4.355 0.044,1.414 0.155,2.778 0.25,4.071 0.099,1.29 0.225,2.51 0.406,3.631 0.303,2.243 0.679,4.104 1.011,5.395 0.293,1.253 0.542,1.954 0.556,1.996 -6.335,5.174 -27.41,5.524 -40.271,6.624 1.185,0.554 2.409,1.117 3.722,1.691 3.911,1.815 8.416,3.661 13.319,5.705 2.447,1.031 5.052,1.968 7.718,3.013 2.676,1.022 5.425,2.124 8.311,3.097 2.874,1.007 5.824,2.043 8.843,3.102 3.015,1.06 6.154,1.978 9.315,3 6.309,2.095 12.94,3.89 19.659,5.781 3.348,0.991 6.771,1.807 10.203,2.641 3.432,0.84 6.876,1.684 10.32,2.528 6.922,1.543 13.885,2.912 20.718,4.355 6.889,1.168 13.666,2.319 20.224,3.432 6.589,0.925 12.974,1.707 19.021,2.508 1.513,0.19 3.002,0.407 4.475,0.568 1.477,0.132 2.93,0.262 4.359,0.389 2.857,0.258 5.62,0.505 8.273,0.745 5.306,0.434 10.158,1.021 14.488,1.136 4.321,0.208 8.089,0.392 11.192,0.542 6.209,0.3 9.755,0.471 9.755,0.471 0,0 -3.549,-0.127 -9.759,-0.348 -3.107,-0.113 -6.877,-0.246 -11.204,-0.401 -4.332,-0.063 -9.193,-0.585 -14.509,-0.956 -2.656,-0.203 -5.424,-0.418 -8.289,-0.637 -1.432,-0.111 -2.889,-0.223 -4.368,-0.337 -1.476,-0.141 -2.97,-0.341 -4.486,-0.51 -6.064,-0.728 -12.469,-1.43 -19.078,-2.274 -6.584,-1.03 -13.388,-2.099 -20.301,-3.181 -6.865,-1.361 -13.863,-2.644 -20.822,-4.106 -3.464,-0.802 -6.928,-1.604 -10.38,-2.402 -3.454,-0.793 -6.897,-1.57 -10.266,-2.522 -6.766,-1.811 -13.444,-3.53 -19.804,-5.551 -3.185,-0.987 -6.348,-1.87 -9.391,-2.895 -3.044,-1.026 -6.022,-2.027 -8.921,-3.006 -2.912,-0.938 -5.689,-2.011 -8.391,-3.006 -2.694,-1.016 -5.324,-1.925 -7.8,-2.931 -4.958,-1.993 -9.514,-3.794 -13.478,-5.574 -2.911,-1.227 -5.497,-2.435 -7.788,-3.507 -3.626,0.528 -5.692,1.27 -5.072,2.498 45.584,32.934 158.978,46.658 268.522,47.374 19.052,8.549 47.885,22.759 76.562,31.385 1.768,0.108 3.538,0.186 5.308,0.265 3.427,0.142 6.858,0.216 10.287,0.253 6.863,0.056 13.725,0.014 20.582,-0.073 6.86,-0.112 13.716,-0.316 20.557,-0.675 3.42,-0.176 6.834,-0.418 10.234,-0.681 1.699,-0.141 3.392,-0.307 5.066,-0.52 0.82,-0.109 1.638,-0.23 2.43,-0.382 -9.918,-7.638 -19.945,-15.156 -30.132,-22.401 -2.704,-1.942 -5.431,-3.853 -8.175,-5.712 -1.381,-0.903 -2.726,-1.829 -4.161,-2.702 l -1.063,-0.663 c -0.168,-0.103 -0.372,-0.241 -0.512,-0.313 -0.127,-0.058 -0.216,-0.13 -0.389,-0.187 -0.609,-0.251 -1.381,-0.442 -2.153,-0.59 -3.132,-0.592 -6.471,-0.798 -9.767,-0.98 -3.311,-0.166 -6.636,-0.245 -9.964,-0.285 -6.656,-0.067 -13.324,-10e-4 -19.994,0.053 -6.671,0.083 -13.343,0.232 -20.017,0.422 l -20.019,0.599 -20.026,0.681 c 6.651,-0.637 13.313,-1.15 19.974,-1.642 6.663,-0.501 13.329,-0.955 20.003,-1.299 6.673,-0.362 13.349,-0.684 20.03,-0.938 6.682,-0.272 13.368,-0.419 20.069,-0.387 3.35,0.014 6.702,0.064 10.064,0.204 3.365,0.162 6.716,0.323 10.157,0.941 0.864,0.163 1.729,0.351 2.671,0.723 0.226,0.073 0.493,0.227 0.74,0.354 0.227,0.124 0.368,0.221 0.558,0.333 l 1.067,0.655 c 1.425,0.851 2.842,1.804 4.262,2.719 2.802,1.859 5.562,3.759 8.297,5.692 5.453,3.889 10.8,7.907 16.127,11.948 5.324,4.048 10.607,8.135 15.864,12.278 l 1.476,1.164 -1.592,0.909 c -0.632,0.36 -1.068,0.453 -1.542,0.59 -0.465,0.124 -0.905,0.21 -1.35,0.294 -0.883,0.162 -1.755,0.282 -2.623,0.389 -1.735,0.207 -3.461,0.361 -5.185,0.487 -3.449,0.266 -6.895,0.374 -10.337,0.474 -6.885,0.182 -13.763,0.21 -20.639,0.143 -6.878,-0.052 -13.751,-0.25 -20.619,-0.634 -4.699,-0.269 -9.407,-0.56 -14.089,-1.07 12.856,3.781 25.645,6.403 37.474,6.842 11.347,0.419 30.522,0.516 54.675,-1.411 2.275,-1.85 4.867,-3.478 7.779,-4.845 3.697,-1.734 7.391,-2.936 11.043,-3.599 -3.025,0.105 -6.058,0.162 -9.098,0.096 -2.007,-0.036 -4.029,-0.171 -6.021,-0.388 -2.026,-0.279 -4.013,-0.7 -5.95,-1.268 -3.88,-1.112 -7.578,-2.681 -11.185,-4.389 -3.608,-1.714 -7.089,-3.662 -10.505,-5.699 -3.413,-2.048 -6.754,-4.203 -10.039,-6.436 -6.571,-4.465 -12.933,-9.225 -19.029,-14.304 3.142,2.42 6.361,4.736 9.609,7.002 3.243,2.28 6.532,4.489 9.871,6.615 6.677,4.251 13.557,8.201 20.725,11.468 3.584,1.62 7.245,3.092 11.012,4.098 1.879,0.515 3.787,0.878 5.696,1.107 1.951,0.175 3.891,0.271 5.849,0.271 7.864,0.023 15.761,-0.63 23.618,-1.441 15.723,-1.645 31.391,-4.05 46.831,-7.409 7.72,-1.676 15.378,-3.621 22.884,-5.988 3.739,-1.216 7.449,-2.509 11.065,-3.989 2.921,-1.217 5.779,-2.589 8.429,-4.21 -4.706,-2.765 -9.633,-5.163 -14.799,-6.78 -1.46,-0.471 -2.943,-0.852 -4.427,-1.161 -0.741,-0.157 -1.487,-0.276 -2.219,-0.368 l -0.535,-0.054 -0.179,-0.014 -0.295,0.004 -1.179,0.013 -9.431,0.108 -18.858,0.204 -18.862,0.095 -37.723,0.16 c -12.575,-0.026 -25.151,0.018 -37.727,-0.089 12.569,-0.469 25.139,-0.789 37.709,-1.178 l 37.712,-0.928 18.856,-0.447 18.858,-0.341 9.429,-0.166 1.178,-0.02 0.295,-0.006 c 0.23,-0.001 0.287,0.012 0.408,0.02 l 0.638,0.059 c 0.828,0.099 1.638,0.225 2.435,0.389 1.595,0.318 3.163,0.716 4.699,1.199 6.164,1.891 11.908,4.792 17.356,8.094 l 1.797,1.09 -1.724,1.204 c -3.395,2.373 -7.046,4.155 -10.748,5.729 -3.71,1.561 -7.494,2.885 -11.307,4.082 -7.639,2.358 -15.381,4.272 -23.169,5.914 -7.789,1.655 -15.624,3.045 -23.489,4.23 -3.931,0.603 -7.871,1.132 -11.818,1.628 -3.947,0.476 -7.898,0.94 -11.862,1.275 -1.805,0.153 -3.609,0.294 -5.416,0.424 4.083,0.331 8.636,1.456 13.187,4.046 53.892,-8.472 120.261,-27.28 180.113,-67.85 -0.991,0.253 -2.194,0.562 -3.645,0.934 -4.383,1.092 -10.777,2.88 -19.039,4.614 -4.127,0.877 -8.666,2.01 -13.666,2.949 -4.995,0.973 -10.397,2.022 -16.169,3.145 -5.797,0.992 -11.966,2.045 -18.47,3.156 -6.531,0.938 -13.399,1.922 -20.564,2.95 -7.189,0.85 -14.667,1.85 -22.428,2.676 -7.767,0.757 -15.785,1.716 -24.057,2.336 -4.134,0.346 -8.323,0.697 -12.567,1.054 -4.247,0.289 -8.544,0.581 -12.89,0.876 -8.688,0.665 -17.584,0.944 -26.625,1.375 -18.088,0.67 -36.792,1.111 -55.796,1.051 -19.006,0.048 -38.312,-0.393 -57.605,-1.091 -19.29,-0.792 -38.559,-2.04 -57.508,-3.461 -18.938,-1.566 -37.565,-3.237 -55.542,-5.34 -4.5,-0.476 -8.952,-1.026 -13.361,-1.581 -4.412,-0.543 -8.781,-1.082 -13.095,-1.675 -8.62,-1.251 -17.068,-2.361 -25.254,-3.693 -16.405,-2.465 -31.842,-5.264 -46.07,-7.917 -7.098,-1.411 -13.909,-2.725 -20.358,-4.116 -6.435,-1.46 -12.562,-2.72 -18.274,-4.13 -11.448,-2.688 -21.371,-5.269 -29.516,-7.482 -4.061,-1.15 -7.687,-2.177 -10.84,-3.068 -3.146,-0.925 -5.798,-1.782 -7.959,-2.441 -4.318,-1.338 -6.621,-2.051 -6.621,-2.051 0,0 2.326,0.636 6.684,1.828 2.183,0.586 4.864,1.354 8.035,2.172 3.175,0.802 6.825,1.723 10.912,2.755 8.188,2.006 18.157,4.337 29.65,6.735 11.49,2.418 24.508,4.864 38.721,7.429 14.243,2.43 29.682,4.989 46.088,7.2 8.188,1.203 16.634,2.185 25.25,3.301 8.636,0.957 17.438,2.122 26.418,3.037 17.942,2.006 36.536,3.581 55.435,5.047 18.909,1.321 38.134,2.47 57.377,3.163 5.742,0.231 11.483,0.433 17.219,0.618 -1.159,-3.049 -2.241,-6.076 -3.277,-9.142 -1.221,-3.625 -2.372,-7.27 -3.451,-10.939 -2.158,-7.336 -4.041,-14.759 -5.516,-22.286 -1.464,-7.526 -2.547,-15.161 -2.823,-22.9 -0.236,-7.71 0.207,-15.639 2.881,-23.207 l 0.492,-1.388 1.431,0.066 28.859,1.32 14.427,0.66 7.214,0.333 7.21,0.45 28.83,1.8 14.404,1.133 7.2,0.568 7.202,0.672 0.248,0.024 0.188,0.147 c 2.981,2.331 5.645,4.968 8.158,7.722 2.514,2.753 4.885,5.621 7.166,8.554 4.556,5.869 8.766,11.985 12.772,18.222 7.986,12.492 15.198,25.473 21.457,38.893 -6.517,-13.296 -13.972,-26.119 -22.177,-38.419 -4.114,-6.143 -8.426,-12.154 -13.064,-17.894 -2.319,-2.866 -4.724,-5.665 -7.256,-8.329 -2.471,-2.604 -5.08,-5.081 -7.904,-7.223 l -6.936,-0.514 -7.2,-0.426 -14.398,-0.853 -28.827,-1.241 -7.206,-0.309 -7.212,-0.192 -14.423,-0.381 -27.323,-0.719 c -1.888,6.452 -2.169,13.447 -1.817,20.336 0.408,7.407 1.599,14.806 3.17,22.119 1.583,7.317 3.571,14.562 5.827,21.721 1.13,3.58 2.331,7.14 3.599,10.672 1.264,3.522 2.599,7.066 4.01,10.469 l -1.49,0.611 c 11.991,0.355 23.946,0.595 35.78,0.623 18.954,0.155 37.607,-0.191 55.648,-0.768 9.017,-0.353 17.887,-0.684 26.56,-1.169 4.337,-0.226 8.628,-0.453 12.866,-0.677 4.236,-0.289 8.419,-0.576 12.545,-0.859 8.261,-0.491 16.266,-1.326 24.027,-1.96 7.753,-0.706 15.223,-1.588 22.409,-2.327 7.164,-0.903 14.031,-1.772 20.561,-2.597 6.515,-0.946 12.695,-1.843 18.504,-2.684 5.788,-0.977 11.204,-1.89 16.213,-2.736 5.017,-0.813 9.572,-1.83 13.716,-2.603 8.29,-1.553 14.741,-3.06 19.157,-4.022 1.498,-0.331 2.738,-0.603 3.75,-0.826 2.082,-13.148 0.952,-22.733 -0.338,-28.435 l 0.008,0.005 c 0.516,-1.576 1.149,-3.086 1.772,-4.602 0.47,-1.078 0.965,-2.143 1.459,-3.206 -0.77,-0.238 -1.537,-0.484 -2.304,-0.73 -1.156,-0.357 -2.294,-0.761 -3.432,-1.166 -1.14,-0.404 -2.284,-0.794 -3.407,-1.24 -1.126,-0.439 -2.259,-0.854 -3.379,-1.313 -2.238,-0.913 -4.461,-1.866 -6.657,-2.898 -2.191,-1.038 -4.366,-2.127 -6.479,-3.381 2.422,0.417 4.784,1 7.124,1.632 2.341,0.638 4.65,1.356 6.947,2.113 1.148,0.377 2.28,0.797 3.422,1.195 1.145,0.387 2.268,0.833 3.397,1.265 1.04,0.396 2.079,0.801 3.107,1.235 l 1.778,-2.547 c 0,0 -19.815,-15.394 -49.641,-31.145 14.14,15.751 6.371,83.741 -37.47,76.013 -3.619,-0.639 -6.827,-1.672 -9.734,-2.987 l 1.409,-2.061 c 3.906,1.875 8.121,2.9 12.517,2.9 20.24,0 36.648,-21.664 36.648,-48.389 0,-22.161 -11.289,-40.83 -26.686,-46.563 1.797,0.155 2.791,0.34 2.791,0.34 0,0 -1.839,-0.584 -5.186,-1.127 -2.441,-0.676 -4.973,-1.037 -7.567,-1.037 -1.628,0 -3.226,0.154 -4.798,0.426 -1.643,0.104 -3.373,0.286 -5.185,0.582 -3.443,0.58 -7.152,1.602 -10.884,3.269 -3.727,1.659 -7.465,3.989 -10.858,6.997 -3.401,2.998 -6.433,6.662 -8.933,10.715 -0.657,1.068 -1.274,2.154 -1.863,3.257 -0.836,-5.805 -1.905,-10.837 -3.675,-14.506 M 232.053,610.908 c -9.813,19.025 -13.454,37.3 -10.533,52.846 3.039,16.167 12.867,28.953 28.427,36.976 8.254,4.257 16.78,6.416 25.34,6.416 22.426,0 43.508,-14.914 56.392,-39.895 0.011,-0.021 0.023,-0.046 0.034,-0.067 11.59,3.834 23.568,6.806 35.854,8.846 l 8.561,55.085 c 0.779,4.579 4.655,9.601 10.342,9.774 l 43.111,1.464 h 0.2 c 5.266,0 9.782,-4.1 10.826,-9.489 l 12.883,-57.985 c 12.907,-2.533 25.447,-6.142 37.53,-10.655 l 27.14,57.809 c 1.355,2.888 3.775,4.945 6.651,5.804 C 488.464,742.692 448.724,750.9 407.097,750.9 246.241,750.9 113.43,628.58 96.758,472.073 c 21.449,9.222 47.972,16.006 75.999,21 10.033,43.313 31.806,82.169 61.763,113.051 z m 460.88,-228.352 -0.238,0.302 c -5.205,-9.479 -12.722,-16.877 -21.789,-20.903 l 0.177,-0.701 c -0.388,-0.125 -2.437,-0.748 -5.927,-1.337 -3.05,-0.806 -6.174,-1.213 -9.292,-1.213 -1.873,0 -3.801,0.158 -5.739,0.472 -1.879,0.131 -3.745,0.346 -5.555,0.642 -3.255,0.549 -6.403,1.387 -9.424,2.483 -4.118,-12.248 -9.207,-24.051 -15.155,-35.334 0.072,-0.073 0.153,-0.141 0.224,-0.216 l 27.428,-29.305 c 1.828,-1.944 2.832,-4.604 2.747,-7.287 -0.086,-2.644 -1.169,-5.072 -3.053,-6.837 l -8.242,-7.716 0.054,-0.06 22.892,21.425 c 2.008,1.881 4.584,2.916 7.253,2.916 2.835,0 5.568,-1.184 7.499,-3.247 l 5.2,-5.556 c 17.261,31.998 29.082,67.336 34.255,104.772 -6.779,-4.163 -14.617,-8.707 -23.315,-13.3 m -626.557,59.08 c -0.007,-0.953 -0.035,-1.904 -0.035,-2.859 0,-0.846 0.025,-1.688 0.031,-2.535 l 0.961,5.313 z m 533.961,242.071 c 6.754,-12.701 8.427,-28.499 1.089,-44.134 -8.228,-17.535 -18.143,-25.06 -26.88,-27.885 0.209,-0.339 0.398,-0.676 0.593,-1.013 25.52,-24.954 45.535,-55.517 58,-89.687 27.184,-8.665 55.293,-20.315 82.639,-35.946 -11.967,80.195 -54.549,150.52 -115.441,198.665 M 443.522,128.799 c 21.138,2.469 41.637,7.053 61.279,13.543 -16.696,6.75 -30.962,22.338 -38.719,43.438 l -6.698,18.221 c -8.046,-1.791 -16.243,-3.176 -24.569,-4.135 l 8.621,-69.738 c 0.049,-0.445 0.077,-0.889 0.086,-1.329 m -157.101,57.963 c 0.13,-0.207 0.316,-0.48 0.585,-0.82 l 0.386,-0.486 0.306,-0.537 c 2.012,-3.534 2.112,-8.329 0.24,-11.658 -4.476,-7.959 -9.494,-13.163 -14.485,-16.499 14.866,-7.074 30.377,-13.003 46.418,-17.68 l 17.74,69.425 c -14.028,4.241 -27.528,9.723 -40.354,16.335 2.925,-13.321 -3.564,-25.149 -10.836,-38.08 m -218.146,268.089 0.891,1.76 1.599,1.157 c 3.352,2.42 7.009,4.717 10.917,6.909 6.039,77.431 39.079,149.415 94.591,204.926 61.654,61.657 143.629,95.611 230.824,95.611 87.194,0 169.169,-33.954 230.824,-95.611 52.901,-52.898 85.385,-120.763 93.552,-194.042 2.59,-1.652 5.173,-3.33 7.741,-5.058 l 3.703,-0.816 0.865,-5.467 c 2.01,-12.692 1.265,-22.511 0.061,-29.067 0.232,-0.59 0.479,-1.194 0.737,-1.813 l 0.104,-0.255 c 0.408,-0.936 0.838,-1.86 1.269,-2.784 l 1.665,-3.594 c 0.139,4.013 0.234,8.033 0.234,12.07 0,91.019 -35.445,176.591 -99.805,240.951 -64.361,64.362 -149.932,99.806 -240.95,99.806 -91.02,0 -176.59,-35.444 -240.951,-99.806 C 103.988,617.569 68.811,535.626 66.475,448.099 l 1.084,0.505 c -0.529,2.065 -0.291,4.26 0.716,6.247 m 675.488,-40.384 c -0.373,-0.29 -4.596,-3.552 -11.852,-8.491 -4.428,-44.67 -17.894,-87.393 -39.483,-126.04 l 10.252,-10.955 c 25.927,44.966 41.183,95.391 44.472,148.119 z M 556.051,242.538 c 1.052,0.364 2.141,0.547 3.243,0.547 4.104,0 7.821,-2.603 9.247,-6.478 9.963,-27.096 10.47,-46.731 6.226,-60.978 16.182,10.347 31.339,22.156 45.311,35.221 l -48.9,52.244 c -10.657,-9.958 -22.203,-18.973 -34.527,-26.882 z M 80.737,379.23 c 0.078,0.154 0.159,0.307 0.238,0.461 l -10.484,25.931 1.941,-0.198 c -0.331,0.956 -0.632,1.951 -0.905,2.973 -0.347,1.243 -0.722,2.646 -1.081,4.106 -0.353,1.429 -0.757,3.059 -1.04,4.833 -0.235,1.284 -0.441,2.589 -0.647,3.896 l -0.102,0.646 c -0.258,1.674 -0.456,3.372 -0.594,5.079 -0.139,1.47 -0.252,3.017 -0.343,4.513 -0.032,0.65 -0.052,1.276 -0.068,1.884 l -1.237,-0.608 c 0.388,-22.556 2.958,-44.751 7.606,-66.35 l 3.741,7.125 c 0.999,1.898 1.997,3.797 2.975,5.709 m 134.777,-85.688 c -10.881,14.316 -20.206,29.877 -27.697,46.437 -12.267,1.181 -23.68,2.681 -34.039,4.5 l 0.486,5.421 c -2.858,0.062 -5.743,0.169 -8.597,0.325 -1.623,0.084 -3.271,0.195 -4.918,0.307 l -1.632,0.111 c -2.223,0.151 -4.432,0.3 -6.642,0.499 -2.138,0.171 -4.345,0.4 -6.551,0.628 l -6.518,0.748 c -4.467,0.529 -8.764,1.142 -12.814,1.825 13.55,-48.158 38.398,-91.627 71.482,-127.373 z m 168.146,-136.824 -1.333,0.088 -5.378,-27.248 c -0.102,-0.481 -0.243,-0.946 -0.403,-1.399 3.039,-0.296 6.094,-0.541 9.156,-0.751 -0.071,0.352 -0.13,0.706 -0.166,1.068 z m 263.032,41.128 12.728,11.914 c -3.685,-4.053 -7.473,-8.032 -11.373,-11.933 -64.36,-64.359 -149.932,-99.805 -240.95,-99.805 -91.02,0 -176.59,35.446 -240.951,99.805 -46.006,46.005 -77.224,102.851 -91.297,164.774 l 6.478,-2.279 c 1.95,-0.686 3.574,-1.21 5.066,-1.632 1.498,-0.432 2.969,-0.802 4.416,-1.159 13.661,-53.56 40.833,-102.882 79.82,-143.797 l -3.051,-5.427 c -3.019,-5.369 -1.263,-11.891 3.998,-14.848 l 32.869,-18.485 c 1.601,-0.901 3.415,-1.376 5.245,-1.376 1.829,0 3.584,0.475 5.137,1.311 2.596,-1.899 5.216,-3.753 7.86,-5.571 2.899,-4.964 7.274,-9.22 13.064,-12.477 5.244,-2.949 10.709,-4.757 16.016,-5.35 47.147,-25.575 100.191,-39.169 155.33,-39.169 83.501,0 162.201,31.158 222.869,87.944 l 1.52,-1.625 c 2.124,-2.269 5.093,-3.57 8.149,-3.57 2.656,0 5.165,0.978 7.057,2.755"
           style="fill:#000000;fill-opacity:1;fill-rule:nonzero;stroke:none"
           id="path1985"
           inkscape:connector-curvature="0" /><path
           d="m 623.621,438.231 c -0.074,-0.125 -0.15,-0.241 -0.226,-0.367 -1.755,-2.982 -3.268,-6.332 -4.404,-9.968 -1.156,-3.625 -1.896,-7.547 -2.176,-11.593 -0.262,-4.014 -0.065,-8.29 0.71,-12.157 0.923,-4.014 2.187,-8.186 3.93,-11.925 1.735,-3.773 3.956,-7.237 6.585,-10.196 1.547,-1.747 3.243,-3.293 5.015,-4.676 -8.431,8.865 -13.84,22.525 -13.84,37.86 0,8.335 1.597,16.177 4.406,23.022"
           style="fill:#ffffff;fill-opacity:1;fill-rule:nonzero;stroke:none"
           id="path1987"
           inkscape:connector-curvature="0" /><path
           d="m 689.142,389.733 c 14.14,15.751 6.371,83.741 -37.47,76.013 -3.619,-0.638 -6.827,-1.672 -9.734,-2.987 l 1.409,-2.06 c 3.906,1.874 8.121,2.899 12.517,2.899 20.24,0 36.648,-21.664 36.648,-48.389 0,-22.161 -11.289,-40.83 -26.686,-46.563 1.797,0.155 2.791,0.342 2.791,0.342 0,0 -1.839,-0.586 -5.186,-1.129 -2.442,-0.676 -4.973,-1.037 -7.567,-1.037 -1.628,0 -3.226,0.154 -4.798,0.426 -1.643,0.104 -3.373,0.286 -5.185,0.582 -3.443,0.58 -7.152,1.602 -10.885,3.269 -3.726,1.661 -7.464,3.989 -10.857,6.997 -3.401,2.998 -6.433,6.662 -8.933,10.715 -0.657,1.068 -1.274,2.154 -1.863,3.257 -0.836,-5.805 -1.905,-10.836 -3.675,-14.506 -3.211,0.377 -6.583,0.682 -10.091,0.926 l -4.782,5.111 c -2.032,2.169 -4.857,3.413 -7.753,3.413 -2.593,0 -5.072,-0.982 -6.989,-2.772 l -5.365,-5.022 C 495.37,378.92 373.985,357.942 316.117,351.786 c 32.577,56.921 -13.066,107.934 -55.309,99.7 -5.765,-1.124 -10.936,-2.779 -15.582,-4.865 -0.254,-0.158 -0.7,-0.434 -1.371,-0.85 -0.527,-0.326 -1.177,-0.727 -1.941,-1.2 -0.743,-0.501 -1.593,-1.077 -2.547,-1.721 -1.9,-1.298 -4.132,-2.964 -6.57,-5.002 -2.41,-2.059 -5.069,-4.466 -7.627,-7.371 -2.577,-2.886 -5.13,-6.217 -7.407,-10.005 -2.294,-3.781 -4.268,-8.037 -5.749,-12.664 -1.504,-4.62 -2.449,-9.624 -2.796,-14.789 -0.16,-2.582 -0.163,-5.203 0.01,-7.82 0.087,-1.305 0.214,-2.611 0.392,-3.902 0.172,-1.281 0.418,-2.611 0.647,-3.724 1.235,-5.269 2.985,-10.448 5.341,-15.199 2.345,-4.761 5.313,-9.109 8.789,-12.809 3.466,-3.711 7.447,-6.74 11.581,-9.074 1.533,-0.871 3.087,-1.617 4.642,-2.305 l -2.266,-4.029 c -1.534,0.489 -3.08,1.028 -4.637,1.678 -4.822,2.001 -9.695,4.837 -14.144,8.573 -4.461,3.719 -8.483,8.306 -11.826,13.425 -1.206,1.849 -2.303,3.775 -3.347,5.735 -0.194,-7.382 -0.074,-13.338 -0.334,-16.794 -19.359,1.35 -35.473,3.347 -48.885,5.701 1.29,-0.007 2.581,-0.003 3.873,0.025 2.207,0.056 4.415,0.15 6.626,0.296 2.211,0.14 4.425,0.324 6.644,0.595 2.22,0.242 4.44,0.626 6.669,1.137 2.228,0.525 4.465,1.128 6.778,2.462 l 1.6,0.924 -0.697,1.537 c -0.325,0.72 -0.635,1.46 -0.981,2.153 l -1.112,1.986 c -0.794,1.268 -1.6,2.517 -2.45,3.712 -0.844,1.207 -1.716,2.38 -2.601,3.539 -0.876,1.165 -1.805,2.288 -2.732,3.406 -1.863,2.231 -3.742,4.437 -5.717,6.558 -1.956,2.134 -3.957,4.227 -6.035,6.244 l 4.942,-7.114 c 1.615,-2.387 3.24,-4.759 4.798,-7.165 l 2.295,-3.626 c 0.756,-1.208 1.497,-2.427 2.194,-3.655 0.712,-1.226 1.356,-2.468 1.98,-3.71 l 0.847,-1.862 c -1.232,-0.407 -2.614,-0.714 -4.002,-0.926 -2.045,-0.327 -4.144,-0.528 -6.261,-0.696 -2.113,-0.171 -4.25,-0.264 -6.389,-0.31 -2.138,-0.054 -4.286,-0.059 -6.434,-0.026 -4.296,0.016 -8.604,0.139 -12.908,0.372 -2.153,0.11 -4.301,0.27 -6.454,0.412 -2.152,0.146 -4.304,0.291 -6.452,0.485 -2.151,0.172 -4.296,0.395 -6.442,0.618 l -6.428,0.738 c -4.283,0.506 -8.554,1.107 -12.798,1.832 -2.123,0.36 -4.245,0.716 -6.359,1.121 -2.108,0.418 -4.213,0.856 -6.3,1.356 -2.083,0.509 -4.172,1.002 -6.227,1.596 -1.564,0.444 -3.102,0.954 -4.628,1.49 1.32,2.515 2.652,5.024 3.945,7.555 1.567,3.04 3.095,6.104 4.588,9.188 -1.051,-1.435 -2.068,-2.892 -3.102,-4.34 l -6.385,15.795 c 0,0 22.966,-2.348 26.372,-1.195 1.517,0.514 2.974,1.428 4.359,2.648 -0.064,0.145 -0.123,0.275 -0.194,0.442 -0.524,1.217 -1.248,2.973 -1.995,5.122 -0.188,0.532 -0.393,1.084 -0.576,1.66 -0.163,0.594 -0.326,1.209 -0.49,1.844 -0.317,1.258 -0.639,2.588 -0.945,3.972 -0.307,1.383 -0.628,2.815 -0.797,4.29 -0.215,1.469 -0.386,2.965 -0.567,4.466 -0.172,1.409 -0.273,2.824 -0.325,4.222 -0.006,0.137 -0.012,0.272 -0.017,0.408 -0.058,1.254 -0.093,2.494 -0.115,3.7 -0.004,0.266 -0.005,0.531 -0.008,0.794 0.009,1.049 0.05,2.069 0.092,3.053 0.019,0.391 0.037,0.776 0.057,1.155 0.042,0.794 0.097,1.559 0.169,2.292 0.044,0.499 0.096,0.981 0.154,1.447 0.155,1.422 0.341,2.67 0.527,3.691 0.15,0.899 0.301,1.555 0.391,1.902 0.047,0.205 0.159,0.139 0.305,-0.132 0.204,0.225 0.391,0.134 0.482,-0.301 0.043,-0.214 0.114,-0.609 0.201,-1.163 0.1,-0.595 0.218,-1.295 0.349,-2.086 0.075,-0.58 0.161,-1.255 0.254,-2.012 0.107,-0.796 0.225,-1.673 0.316,-2.612 0.039,-0.401 0.087,-0.812 0.138,-1.236 0.076,-0.594 0.155,-1.21 0.223,-1.842 0.112,-1.094 0.222,-2.237 0.335,-3.415 0.137,-1.191 0.265,-2.416 0.374,-3.658 0.112,-1.25 0.203,-2.517 0.369,-3.779 0.154,-1.462 0.314,-2.924 0.429,-4.371 0.102,-1.449 0.278,-2.861 0.429,-4.234 0.155,-1.372 0.266,-2.707 0.363,-3.978 0.082,-1.273 0.16,-2.478 0.297,-3.579 0.247,-2.21 0.353,-4.088 0.41,-5.413 0.001,-0.021 0.001,-0.035 0.003,-0.054 0.961,0.925 1.886,1.999 2.769,3.191 -0.136,0.371 -0.273,0.743 -0.411,1.144 -0.186,0.532 -0.393,1.087 -0.574,1.667 -0.159,0.592 -0.32,1.208 -0.481,1.839 -0.312,1.258 -0.629,2.59 -0.928,3.976 -0.302,1.385 -0.621,2.818 -0.778,4.293 -0.206,1.47 -0.369,2.971 -0.539,4.47 -0.162,1.396 -0.251,2.798 -0.293,4.183 -0.005,0.133 -0.01,0.268 -0.012,0.402 -0.048,1.242 -0.075,2.469 -0.086,3.664 -0.001,0.264 -0.003,0.524 -0.003,0.784 0.015,1.038 0.066,2.052 0.119,3.025 0.018,0.386 0.041,0.763 0.064,1.137 0.046,0.787 0.106,1.548 0.182,2.272 0.048,0.494 0.104,0.97 0.167,1.431 0.165,1.396 0.358,2.629 0.55,3.651 0.148,0.832 0.296,1.473 0.398,1.876 0.056,0.239 0.153,0.286 0.272,0.185 0.207,0.408 0.381,0.487 0.441,0.196 0.03,-0.141 0.088,-0.489 0.168,-1.014 0.083,-0.51 0.182,-1.13 0.294,-1.842 0.075,-0.603 0.162,-1.317 0.26,-2.124 0.109,-0.833 0.229,-1.759 0.318,-2.753 0.039,-0.421 0.087,-0.854 0.139,-1.298 0.074,-0.628 0.156,-1.278 0.222,-1.946 0.11,-1.152 0.22,-2.357 0.333,-3.602 0.14,-1.254 0.267,-2.543 0.376,-3.85 0.11,-1.315 0.194,-2.649 0.365,-3.976 0.145,-1.463 0.296,-2.924 0.402,-4.37 0.092,-1.447 0.262,-2.859 0.408,-4.232 0.145,-1.372 0.256,-2.706 0.345,-3.975 0.051,-0.835 0.106,-1.625 0.174,-2.39 0.515,0.849 1.012,1.737 1.49,2.654 -0.191,0.82 -0.38,1.654 -0.564,2.521 -0.297,1.385 -0.608,2.821 -0.759,4.298 -0.194,1.471 -0.349,2.972 -0.511,4.472 -0.153,1.384 -0.23,2.771 -0.261,4.143 -0.003,0.132 -0.519,0.265 -0.522,0.398 -0.036,1.23 -0.569,2.445 -0.569,3.629 v 0.772 c 0,1.028 0.596,2.031 0.658,2.997 0.024,0.379 0.304,0.752 0.33,1.119 0.053,0.781 0.246,1.535 0.327,2.255 0.052,0.487 0.176,0.958 0.243,1.413 0.174,1.369 0.406,2.588 0.605,3.614 0.144,0.761 0.314,1.385 0.434,1.846 0.063,0.274 0.15,0.433 0.24,0.503 0.208,0.59 0.372,0.839 0.402,0.694 0.015,-0.071 0.064,-0.372 0.135,-0.868 0.063,-0.427 0.145,-0.962 0.239,-1.595 0.074,-0.628 0.163,-1.379 0.265,-2.238 0.112,-0.871 0.235,-1.843 0.323,-2.894 0.037,-0.44 0.085,-0.894 0.138,-1.36 0.075,-0.66 0.157,-1.345 0.224,-2.049 0.105,-1.208 0.214,-2.479 0.329,-3.789 0.141,-1.314 0.271,-2.67 0.375,-4.045 0.109,-1.379 0.189,-2.779 0.363,-4.17 0.135,-1.463 0.279,-2.924 0.374,-4.37 0.018,-0.286 0.047,-0.564 0.069,-0.846 0.265,0.694 0.523,1.393 0.769,2.098 -0.074,0.709 -0.157,1.41 -0.231,2.123 -0.157,1.502 -0.22,3.008 -0.231,4.494 -0.033,1.483 -0.038,2.944 -0.022,4.355 0.044,1.414 0.155,2.778 0.252,4.071 0.098,1.29 0.224,2.51 0.404,3.631 0.303,2.243 0.68,4.103 1.011,5.397 0.294,1.25 0.543,1.952 0.559,1.994 -6.337,5.175 -27.412,5.526 -40.271,6.624 1.182,0.554 2.407,1.118 3.72,1.691 3.912,1.815 8.415,3.663 13.318,5.704 2.448,1.032 5.052,1.968 7.72,3.013 2.675,1.024 5.424,2.125 8.31,3.097 2.873,1.008 5.824,2.045 8.843,3.102 3.017,1.061 6.154,1.978 9.314,3.002 6.309,2.095 12.941,3.888 19.661,5.78 3.346,0.991 6.77,1.806 10.202,2.64 3.431,0.84 6.875,1.685 10.321,2.529 6.921,1.543 13.883,2.911 20.717,4.355 6.888,1.169 13.665,2.319 20.224,3.434 6.588,0.923 12.973,1.705 19.022,2.508 1.512,0.188 3.001,0.406 4.475,0.566 1.476,0.132 2.929,0.263 4.358,0.389 2.859,0.258 5.619,0.505 8.272,0.745 5.306,0.435 10.161,1.021 14.488,1.136 4.323,0.208 8.091,0.392 11.194,0.542 6.207,0.299 9.754,0.471 9.754,0.471 0,0 -3.55,-0.127 -9.759,-0.348 -3.106,-0.111 -6.878,-0.246 -11.205,-0.399 -4.331,-0.064 -9.193,-0.588 -14.507,-0.957 -2.657,-0.204 -5.426,-0.418 -8.291,-0.638 -1.432,-0.111 -2.888,-0.223 -4.366,-0.337 -1.478,-0.142 -2.972,-0.34 -4.488,-0.511 -6.064,-0.726 -12.467,-1.429 -19.076,-2.271 -6.586,-1.033 -13.389,-2.1 -20.303,-3.184 -6.864,-1.358 -13.862,-2.643 -20.82,-4.103 -3.466,-0.804 -6.93,-1.605 -10.381,-2.404 -3.453,-0.793 -6.897,-1.571 -10.267,-2.522 -6.766,-1.81 -13.443,-3.53 -19.803,-5.551 -3.185,-0.988 -6.348,-1.869 -9.391,-2.895 -3.044,-1.026 -6.022,-2.028 -8.92,-3.006 -2.913,-0.939 -5.691,-2.012 -8.393,-3.004 -2.693,-1.016 -5.322,-1.928 -7.8,-2.932 -4.957,-1.994 -9.512,-3.795 -13.477,-5.575 -2.91,-1.226 -5.497,-2.436 -7.789,-3.508 -3.626,0.529 -5.692,1.273 -5.071,2.499 45.585,32.934 158.977,46.658 268.522,47.374 19.053,8.55 47.884,22.761 76.562,31.385 1.768,0.108 3.538,0.185 5.306,0.267 3.429,0.14 6.86,0.213 10.289,0.25 6.863,0.056 13.725,0.015 20.581,-0.071 6.859,-0.113 13.717,-0.318 20.558,-0.676 3.42,-0.176 6.834,-0.418 10.234,-0.681 1.699,-0.14 3.392,-0.307 5.064,-0.52 0.822,-0.11 1.64,-0.231 2.432,-0.383 -9.918,-7.638 -19.945,-15.155 -30.132,-22.401 -2.704,-1.942 -5.431,-3.852 -8.175,-5.71 -1.381,-0.903 -2.728,-1.83 -4.161,-2.704 l -1.063,-0.662 c -0.168,-0.101 -0.372,-0.241 -0.512,-0.313 -0.127,-0.058 -0.216,-0.131 -0.389,-0.187 -0.609,-0.249 -1.381,-0.44 -2.153,-0.59 -3.132,-0.592 -6.471,-0.797 -9.767,-0.979 -3.311,-0.168 -6.638,-0.245 -9.964,-0.286 -6.656,-0.065 -13.324,-0.002 -19.994,0.055 -6.671,0.081 -13.344,0.231 -20.016,0.419 l -20.021,0.599 -20.026,0.682 c 6.653,-0.635 13.313,-1.15 19.975,-1.641 6.664,-0.503 13.329,-0.955 20.003,-1.301 6.673,-0.362 13.349,-0.684 20.03,-0.937 6.682,-0.271 13.368,-0.419 20.069,-0.387 3.35,0.013 6.702,0.064 10.064,0.204 3.365,0.161 6.716,0.324 10.157,0.941 0.863,0.165 1.729,0.35 2.671,0.723 0.226,0.073 0.493,0.226 0.739,0.353 0.228,0.125 0.369,0.223 0.559,0.336 l 1.067,0.654 c 1.425,0.849 2.842,1.803 4.262,2.718 2.802,1.859 5.562,3.759 8.297,5.691 5.453,3.891 10.8,7.908 16.127,11.948 5.324,4.051 10.607,8.136 15.864,12.28 l 1.476,1.163 -1.593,0.909 c -0.631,0.359 -1.067,0.452 -1.541,0.59 -0.466,0.124 -0.906,0.212 -1.35,0.294 -0.883,0.161 -1.755,0.281 -2.623,0.39 -1.735,0.206 -3.461,0.361 -5.185,0.486 -3.449,0.266 -6.895,0.374 -10.337,0.475 -6.885,0.18 -13.763,0.209 -20.639,0.142 -6.878,-0.052 -13.752,-0.251 -20.619,-0.633 -4.699,-0.27 -9.407,-0.561 -14.089,-1.069 12.856,3.778 25.645,6.4 37.474,6.84 11.347,0.419 30.522,0.515 54.675,-1.409 2.273,-1.85 4.867,-3.48 7.779,-4.848 3.697,-1.734 7.391,-2.935 11.043,-3.598 -3.027,0.105 -6.058,0.162 -9.098,0.097 -2.007,-0.037 -4.029,-0.173 -6.021,-0.389 -2.026,-0.278 -4.014,-0.701 -5.95,-1.269 -3.88,-1.111 -7.578,-2.68 -11.185,-4.389 -3.608,-1.712 -7.089,-3.661 -10.505,-5.699 -3.413,-2.046 -6.754,-4.203 -10.039,-6.435 -6.571,-4.465 -12.934,-9.226 -19.029,-14.304 3.142,2.42 6.361,4.737 9.609,7.004 3.243,2.277 6.532,4.486 9.871,6.613 6.677,4.253 13.557,8.2 20.725,11.469 3.584,1.619 7.245,3.092 11.012,4.096 1.879,0.516 3.787,0.879 5.696,1.108 1.951,0.175 3.891,0.27 5.849,0.27 7.864,0.023 15.761,-0.629 23.618,-1.44 15.723,-1.644 31.391,-4.051 46.831,-7.409 7.72,-1.676 15.378,-3.622 22.884,-5.988 3.739,-1.216 7.449,-2.508 11.065,-3.99 2.921,-1.217 5.777,-2.587 8.429,-4.209 -4.706,-2.765 -9.633,-5.164 -14.799,-6.779 -1.46,-0.473 -2.943,-0.854 -4.427,-1.162 -0.741,-0.156 -1.487,-0.274 -2.22,-0.368 l -0.534,-0.054 -0.179,-0.015 -0.295,0.005 -1.179,0.013 -9.431,0.108 -18.858,0.204 -18.862,0.095 -37.723,0.161 c -12.577,-0.027 -25.151,0.017 -37.727,-0.09 12.569,-0.47 25.139,-0.789 37.709,-1.177 l 37.712,-0.929 18.856,-0.448 18.857,-0.34 9.43,-0.167 1.178,-0.017 0.295,-0.006 c 0.23,-0.002 0.287,0.011 0.408,0.017 l 0.638,0.06 c 0.828,0.101 1.638,0.227 2.435,0.388 1.595,0.321 3.163,0.716 4.699,1.2 6.164,1.891 11.908,4.791 17.356,8.094 l 1.797,1.089 -1.724,1.206 c -3.395,2.371 -7.046,4.154 -10.748,5.729 -3.71,1.56 -7.494,2.884 -11.307,4.081 -7.639,2.357 -15.381,4.274 -23.17,5.914 -7.788,1.654 -15.623,3.045 -23.488,4.23 -3.931,0.603 -7.871,1.132 -11.818,1.628 -3.947,0.476 -7.898,0.94 -11.862,1.276 -1.805,0.152 -3.609,0.294 -5.416,0.423 4.083,0.33 8.636,1.456 13.187,4.048 53.892,-8.473 120.261,-27.283 180.113,-67.853 -0.991,0.256 -2.194,0.562 -3.645,0.935 -4.383,1.091 -10.777,2.879 -19.039,4.613 -4.127,0.878 -8.666,2.011 -13.666,2.95 -4.995,0.973 -10.397,2.024 -16.169,3.147 -5.797,0.99 -11.966,2.043 -18.47,3.153 -6.531,0.939 -13.399,1.924 -20.564,2.95 -7.189,0.851 -14.667,1.85 -22.428,2.678 -7.767,0.755 -15.785,1.714 -24.057,2.334 -4.134,0.349 -8.325,0.699 -12.567,1.056 -4.247,0.288 -8.544,0.58 -12.89,0.875 -8.688,0.664 -17.584,0.944 -26.625,1.375 -18.088,0.669 -36.792,1.11 -55.796,1.051 -19.006,0.049 -38.312,-0.393 -57.605,-1.09 -19.292,-0.793 -38.558,-2.042 -57.509,-3.461 -18.936,-1.567 -37.564,-3.239 -55.541,-5.341 -4.499,-0.476 -8.953,-1.027 -13.361,-1.58 -4.412,-0.544 -8.782,-1.084 -13.094,-1.675 -8.621,-1.25 -17.068,-2.363 -25.256,-3.693 -16.405,-2.466 -31.839,-5.266 -46.069,-7.919 -7.099,-1.41 -13.91,-2.724 -20.358,-4.115 -6.435,-1.461 -12.563,-2.721 -18.273,-4.128 -11.45,-2.689 -21.371,-5.272 -29.517,-7.484 -4.061,-1.15 -7.687,-2.177 -10.841,-3.069 -3.143,-0.925 -5.797,-1.781 -7.959,-2.44 -4.316,-1.338 -6.62,-2.05 -6.62,-2.05 0,0 2.325,0.635 6.684,1.827 2.184,0.586 4.864,1.354 8.037,2.174 3.172,0.8 6.822,1.722 10.911,2.753 8.188,2.006 18.156,4.339 29.65,6.736 11.488,2.417 24.506,4.863 38.721,7.428 14.242,2.429 29.681,4.988 46.086,7.199 8.189,1.204 16.636,2.185 25.251,3.302 8.636,0.957 17.438,2.121 26.417,3.037 17.945,2.006 36.537,3.581 55.435,5.048 18.909,1.319 38.135,2.469 57.378,3.164 5.742,0.23 11.483,0.43 17.219,0.616 -1.16,-3.05 -2.241,-6.076 -3.277,-9.143 -1.221,-3.624 -2.372,-7.269 -3.452,-10.936 -2.157,-7.336 -4.04,-14.761 -5.515,-22.288 -1.464,-7.526 -2.547,-15.161 -2.823,-22.9 -0.236,-7.71 0.207,-15.639 2.881,-23.207 l 0.492,-1.388 1.431,0.066 28.859,1.32 14.427,0.66 7.214,0.333 7.209,0.45 28.831,1.8 14.404,1.133 7.2,0.568 7.2,0.672 0.25,0.024 0.188,0.147 c 2.981,2.331 5.645,4.968 8.158,7.722 2.514,2.753 4.885,5.621 7.166,8.554 4.556,5.869 8.766,11.985 12.772,18.222 7.986,12.492 15.198,25.472 21.457,38.893 -6.517,-13.296 -13.972,-26.12 -22.177,-38.42 -4.114,-6.142 -8.426,-12.153 -13.064,-17.893 -2.319,-2.866 -4.725,-5.665 -7.256,-8.329 -2.471,-2.604 -5.08,-5.081 -7.904,-7.223 l -6.936,-0.514 -7.2,-0.426 -14.398,-0.853 -28.827,-1.241 -7.206,-0.31 -7.212,-0.191 -14.423,-0.381 -27.323,-0.719 c -1.888,6.452 -2.17,13.447 -1.817,20.336 0.408,7.407 1.599,14.806 3.17,22.12 1.583,7.316 3.571,14.562 5.827,21.722 1.13,3.58 2.331,7.137 3.597,10.671 1.266,3.522 2.601,7.065 4.012,10.468 l -1.49,0.611 c 11.991,0.355 23.946,0.595 35.78,0.624 18.954,0.154 37.607,-0.193 55.648,-0.769 9.017,-0.354 17.887,-0.684 26.56,-1.169 4.337,-0.227 8.627,-0.452 12.866,-0.678 4.236,-0.288 8.419,-0.575 12.545,-0.856 8.261,-0.493 16.266,-1.328 24.026,-1.961 7.754,-0.708 15.224,-1.589 22.409,-2.327 7.165,-0.905 14.032,-1.774 20.562,-2.598 6.515,-0.946 12.693,-1.843 18.504,-2.684 5.788,-0.977 11.204,-1.891 16.213,-2.736 5.017,-0.811 9.572,-1.828 13.715,-2.601 8.291,-1.554 14.741,-3.062 19.157,-4.024 1.499,-0.33 2.739,-0.603 3.751,-0.827 2.082,-13.147 0.952,-22.733 -0.338,-28.434 l 0.008,0.005 c 0.516,-1.576 1.149,-3.086 1.772,-4.603 0.47,-1.077 0.965,-2.142 1.459,-3.205 -0.77,-0.238 -1.537,-0.484 -2.304,-0.73 -1.156,-0.357 -2.294,-0.761 -3.432,-1.166 -1.14,-0.402 -2.284,-0.794 -3.407,-1.24 -1.126,-0.439 -2.259,-0.854 -3.378,-1.313 -2.239,-0.913 -4.462,-1.866 -6.658,-2.898 -2.191,-1.038 -4.366,-2.127 -6.479,-3.381 2.422,0.417 4.783,1 7.124,1.632 2.341,0.638 4.65,1.356 6.947,2.113 1.148,0.377 2.28,0.797 3.422,1.195 1.145,0.388 2.268,0.833 3.396,1.265 1.04,0.396 2.08,0.801 3.108,1.235 l 1.778,-2.547 c 0,0 -19.815,-15.394 -49.641,-31.145 m -7.15,-98.649 -5.199,5.556 c -1.931,2.063 -4.664,3.247 -7.499,3.247 -2.669,0 -5.245,-1.035 -7.253,-2.914 l -22.892,-21.427 -0.056,0.06 8.244,7.716 c 1.884,1.765 2.967,4.193 3.053,6.837 0.085,2.683 -0.919,5.343 -2.747,7.288 l -27.428,29.304 c -0.071,0.075 -0.152,0.143 -0.224,0.216 -1.812,1.813 -4.277,2.856 -6.824,2.856 -1.11,0 -2.199,-0.191 -3.228,-0.557 l 11.338,10.612 c 1.913,1.791 3.108,4.18 3.363,6.727 0.293,2.933 -0.699,5.854 -2.72,8.013 l -14.011,14.967 c 0.267,-0.029 0.548,-0.056 0.811,-0.087 l 5.748,-0.675 2.389,4.957 c 0.622,-0.605 1.253,-1.192 1.897,-1.76 3.877,-3.435 8.23,-6.242 12.932,-8.333 1.131,-0.505 2.288,-0.96 3.46,-1.386 3.021,-1.096 6.169,-1.934 9.424,-2.483 1.81,-0.296 3.676,-0.511 5.555,-0.642 1.937,-0.314 3.866,-0.472 5.739,-0.472 3.117,0 6.242,0.407 9.292,1.213 3.49,0.589 5.539,1.212 5.927,1.337 l -0.177,0.701 c 9.067,4.026 16.584,11.424 21.787,20.903 l 0.239,-0.302 c 8.699,4.593 16.537,9.137 23.316,13.3 -5.173,-37.436 -16.994,-72.774 -34.256,-104.772 m 16.903,-29.936 c 0.904,-0.966 0.851,-2.524 -0.116,-3.429 l -57.635,-53.948 c -0.964,-0.904 -2.674,-0.691 -3.729,0.436 L 528.313,320.766 c -0.903,0.966 -0.992,2.997 0.135,4.052 l 57.153,53.496 c 0.967,0.904 2.363,0.702 3.267,-0.264 l 27.125,-28.98 c 0.903,-0.965 0.7,-2.363 -0.264,-3.266 l -26.886,-25.167 c -0.645,-0.603 -0.675,-1.536 -0.072,-2.181 l 8.439,-9.016 c 0.602,-0.643 1.697,-0.524 2.182,-0.073 l 12.717,11.906 c 0.646,0.603 1.579,0.571 2.182,-0.072 L 641.717,291.9 c 0.755,-0.804 0.713,-2.051 0.069,-2.654 l -13.041,-12.207 c -0.643,-0.602 -0.674,-1.538 0.08,-2.342 l 8.889,-9.499 c 0.603,-0.643 1.539,-0.675 2.021,-0.222 l 27.853,26.07 c 1.128,1.055 2.524,0.851 3.276,0.048 z M 574.767,175.629 c 4.243,14.247 3.737,33.882 -6.226,60.978 -1.426,3.875 -5.145,6.478 -9.247,6.478 -1.102,0 -2.191,-0.183 -3.243,-0.547 l -19.4,-6.326 -19.941,-6.504 c -0.69,-0.194 -1.35,-0.456 -1.969,-0.779 l -2.994,8.144 c 0.978,0.097 1.934,0.317 2.856,0.654 l 0.145,0.054 37.787,15.539 c 6.486,2.481 6.52,8.165 6.373,9.86 -0.175,2.023 -0.835,3.816 -2.148,7.387 -2.193,5.96 -4.869,11.448 -7.946,16.417 l 22.364,-23.89 48.9,-52.244 c -13.972,-13.065 -29.129,-24.874 -45.311,-35.221 m -79.704,83.3 23.664,-64.366 c 0.761,-2.071 2.743,-2.988 4.606,-2.302 2.069,0.76 2.703,2.872 1.942,4.941 l -7.685,20.906 c -0.458,1.241 -0.316,3.409 1.416,3.81 l 39.651,12.932 c 1.035,0.38 1.961,-0.22 2.266,-1.047 18.337,-49.88 4.163,-74.591 -21.916,-84.178 -28.771,-10.576 -54.425,9.359 -65.305,38.956 l -15.141,41.188 c -13.849,37.668 -4.322,66.073 24.034,76.497 30.217,11.11 55.589,-8.696 66.545,-38.499 2.055,-5.588 2.284,-6.209 0.421,-6.893 l -37.756,-15.526 c -1.865,-0.684 -4.335,0.287 -5.249,2.77 l -4.793,13.038 c -1.066,2.898 -3.102,3.324 -4.756,2.716 -1.657,-0.609 -2.78,-2.667 -1.944,-4.943 m -51.541,-130.13 c -0.009,0.44 -0.037,0.884 -0.086,1.329 l -8.621,69.738 -11.055,89.441 c -0.534,5.624 -4.791,10.086 -10.205,10.445 l -43.291,2.99 h -0.271 c -5.416,0 -9.401,-4.379 -10.566,-8.695 l -21.815,-85.45 -17.741,-69.47 c -16.041,4.676 -31.553,10.583 -46.419,17.657 4.992,3.336 10.009,8.529 14.486,16.487 1.871,3.331 1.772,8.12 -0.241,11.654 l -0.306,0.535 -0.386,0.483 c -0.269,0.34 -0.453,0.612 -0.582,0.819 7.269,12.932 13.758,24.759 10.834,38.08 -0.614,2.8 -1.634,5.663 -3.16,8.619 10.953,2.602 20.627,11.271 28.836,25.869 7.153,12.716 8.423,27.15 3.576,40.642 -4.216,11.734 -12.683,21.865 -23.229,27.796 l -6.795,3.823 c 5.515,3.062 10.54,6.96 14.924,11.531 l 5.568,0.592 c 16.947,1.802 38.858,4.807 64.233,8.285 58.279,7.99 129.933,17.814 184.683,18.987 l -42.996,-40.243 c -4.341,-4.067 -4.576,-11.176 -0.509,-15.524 l 6.62,-7.073 c -8.911,6.054 -18.999,9.368 -29.596,9.368 -6.472,0 -13.072,-1.222 -19.618,-3.628 -16.43,-6.04 -27.763,-17.512 -32.774,-33.179 -4.821,-15.065 -3.465,-33.649 3.92,-53.74 l 8.444,-22.966 6.698,-18.221 c 7.757,-21.1 22.023,-36.688 38.719,-43.438 -19.643,-6.49 -40.141,-11.074 -61.279,-13.543 m -66.976,-0.64 c 0.16,0.453 0.301,0.918 0.402,1.399 l 5.378,27.248 1.333,-0.088 1.878,-28.242 c 0.034,-0.362 0.093,-0.716 0.166,-1.068 -3.064,0.21 -6.119,0.455 -9.157,0.751 m 55.43,-3.646 -35.646,2.368 c -1.322,0.089 -2.584,1.057 -2.715,2.39 l -2.208,33.298 c -0.146,1.117 -0.984,1.835 -2.084,1.909 l -11.882,0.79 c -0.881,0.056 -1.818,-0.764 -2.127,-2.071 l -6.331,-32.067 c -0.322,-1.526 -1.921,-2.305 -3.019,-2.231 l -36.309,2.411 c -1.981,0.132 -2.979,1.747 -2.391,3.917 l 40.027,156.693 c 0.293,1.086 1.495,2.554 2.815,2.465 l 42.911,-2.851 c 1.539,-0.102 2.551,-1.495 2.669,-3.05 l 19.692,-159.336 c 0.279,-2.45 -0.982,-4.796 -3.402,-4.635 m -120.869,265.22 c 0,26.057 -19.647,47.255 -43.795,47.255 -24.147,0 -43.794,-21.198 -43.794,-47.255 0,-17.863 9.235,-33.441 22.823,-41.473 -0.129,-0.198 -0.272,-0.389 -0.391,-0.599 l -4.79,-8.516 c -16.913,9.786 -28.381,28.772 -28.381,50.588 0,31.83 24.414,57.636 54.533,57.636 30.119,0 54.533,-25.806 54.533,-57.636 0,-24.112 -14.017,-44.744 -33.905,-53.338 l -12.344,6.942 c 20.2,4.192 35.511,23.397 35.511,46.396 m -61.59,-23.344 -6.151,-6.62 c 2.972,-2.814 6.374,-5.082 10.069,-6.744 -2.314,-0.421 -4.431,-1.611 -6.03,-3.379 -13.285,7.671 -22.34,22.761 -22.34,40.087 0,25.07 18.952,45.465 42.247,45.465 23.296,0 42.248,-20.395 42.248,-45.465 0,-1.721 -0.097,-3.419 -0.273,-5.091 -2.144,-20.606 -17.131,-37.091 -36.124,-39.936 l -12.747,7.171 c -1.561,0.876 -3.33,1.339 -5.117,1.339 -0.039,0 -0.075,-0.007 -0.116,-0.009 l 2.989,7.727 c -3.163,1.223 -6.075,3.059 -8.655,5.455 m -9.788,-202.451 c -13.837,7.783 -17.66,22.581 -7.499,40.648 l 16.648,29.602 c 3.46,6.149 2.497,10.738 0.384,11.927 -1.153,0.65 -1.887,-0.205 -2.644,-1.549 l -34.59,-61.507 c -0.65,-1.154 -2.259,-1.766 -3.604,-1.01 l -32.869,18.486 c -1.346,0.756 -1.766,2.258 -0.901,3.795 l 78.371,139.352 c 0.759,1.344 2.261,1.764 3.412,1.117 L 299.3,320.691 c 16.914,-9.511 29.746,-33.933 16.556,-57.38 -5.836,-10.381 -18.459,-28.329 -38.232,-20.75 l -0.217,-0.383 c 19.667,-19.916 12.64,-32.409 1.614,-52.015 -1.297,-2.305 -1.634,-5.153 1.623,-9.262 0.635,-1.117 0.648,-2.896 0.215,-3.665 -14.703,-26.138 -34.786,-16.867 -41.13,-13.298 M 106.594,354.343 c 4.049,-0.683 8.346,-1.296 12.811,-1.823 l 6.52,-0.75 c 2.207,-0.228 4.413,-0.457 6.55,-0.628 2.209,-0.199 4.42,-0.348 6.643,-0.499 l 1.631,-0.111 c 1.647,-0.112 3.294,-0.223 4.919,-0.307 2.853,-0.156 5.739,-0.263 8.597,-0.325 l -0.488,-5.421 c 10.359,-1.819 21.772,-3.319 34.039,-4.5 5.09,-0.489 10.309,-0.928 15.686,-1.302 l 8.057,-0.563 0.178,2.383 c 0.856,-0.797 1.727,-1.564 2.616,-2.306 4.857,-4.079 10.325,-7.394 16.235,-9.847 1.214,-0.506 2.45,-0.975 3.704,-1.411 L 215.514,293.542 178.075,226.97 c -33.085,35.746 -57.932,79.215 -71.481,127.373 m -30.07,92.409 c 0.059,0.317 0.099,0.497 0.099,0.497 0,0 0.041,-0.154 0.102,-0.396 -0.065,-0.033 -0.135,-0.068 -0.201,-0.101 m 3.971,-39.75 c -0.412,1.065 -0.791,2.234 -1.124,3.487 -0.349,1.251 -0.703,2.575 -1.042,3.949 -0.339,1.376 -0.691,2.8 -0.921,4.266 -0.269,1.461 -0.496,2.952 -0.732,4.442 -0.23,1.492 -0.402,2.989 -0.522,4.468 -0.138,1.479 -0.245,2.936 -0.331,4.347 -0.068,1.412 -0.079,2.782 -0.09,4.079 -0.011,1.296 0.014,2.524 0.08,3.66 0.057,1.407 0.154,2.65 0.261,3.722 0.421,0.215 0.843,0.431 1.311,0.667 0.26,-1.155 0.573,-2.58 0.877,-4.21 0.211,-1.103 0.439,-2.295 0.679,-3.557 0.21,-1.259 0.432,-2.59 0.66,-3.966 0.513,-2.741 0.856,-5.685 1.327,-8.61 0.209,-1.467 0.426,-2.931 0.594,-4.381 0.164,-1.451 0.373,-2.869 0.558,-4.247 0.391,-2.749 0.549,-5.368 0.824,-7.585 0.266,-2.22 0.393,-4.103 0.46,-5.432 0.069,-1.329 0.06,-2.105 0.06,-2.105 0,0 -0.354,0.679 -0.888,1.895 -0.535,1.216 -1.274,2.967 -2.041,5.111 m 11.498,11.07 c 0.142,-1.452 0.341,-2.867 0.514,-4.244 0.181,-1.374 0.311,-2.713 0.424,-3.988 0.11,-1.275 0.209,-2.482 0.346,-3.587 0.261,-2.217 0.38,-4.099 0.443,-5.426 0.064,-1.327 0.054,-2.103 0.054,-2.103 0,0 -0.352,0.677 -0.883,1.894 -0.532,1.217 -1.263,2.971 -2.025,5.114 -0.196,0.522 -0.392,1.067 -0.575,1.635 -0.184,0.596 -0.361,1.218 -0.531,1.859 -0.337,1.253 -0.68,2.578 -1.006,3.957 -0.331,1.378 -0.673,2.803 -0.882,4.273 -0.25,1.463 -0.459,2.957 -0.676,4.448 -0.212,1.466 -0.36,2.936 -0.458,4.389 -0.009,0.143 -0.02,0.282 -0.03,0.427 -0.099,1.302 -0.175,2.59 -0.234,3.838 -0.01,0.281 -0.019,0.562 -0.026,0.839 -0.021,1.088 -0.013,2.15 -0.007,3.164 0.004,0.416 0.01,0.826 0.019,1.228 0.021,0.821 0.056,1.61 0.108,2.36 0.031,0.528 0.067,1.036 0.108,1.523 0.119,1.525 0.277,2.833 0.434,3.845 0.163,1.179 0.328,1.898 0.356,2.012 0.018,0.07 0.188,-0.449 0.443,-1.402 0.198,-0.502 0.431,-1.275 0.643,-2.291 0.103,-0.496 0.218,-1.085 0.338,-1.752 0.173,-0.933 0.363,-1.962 0.57,-3.065 0.073,-0.486 0.15,-1.007 0.232,-1.561 0.1,-0.651 0.205,-1.335 0.302,-2.047 0.045,-0.326 0.091,-0.656 0.142,-0.99 0.074,-0.466 0.149,-0.942 0.218,-1.427 0.12,-0.865 0.234,-1.758 0.348,-2.667 0.127,-0.947 0.249,-1.912 0.366,-2.885 0.12,-0.994 0.238,-1.995 0.385,-2.993 0.191,-1.466 0.39,-2.929 0.54,-4.377 m 5.236,-0.648 c 0.131,-1.449 0.325,-2.865 0.492,-4.239 0.173,-1.375 0.299,-2.713 0.409,-3.988 0.103,-1.273 0.195,-2.48 0.333,-3.585 0.258,-2.215 0.374,-4.095 0.436,-5.422 0.062,-1.327 0.05,-2.103 0.05,-2.103 0,0 -0.35,0.677 -0.879,1.895 -0.531,1.217 -1.259,2.97 -2.019,5.114 -0.193,0.526 -0.392,1.073 -0.574,1.642 -0.18,0.597 -0.354,1.216 -0.52,1.857 -0.335,1.253 -0.671,2.58 -0.994,3.96 -0.323,1.379 -0.661,2.806 -0.859,4.278 -0.242,1.464 -0.442,2.959 -0.649,4.452 -0.201,1.452 -0.338,2.907 -0.425,4.347 -0.009,0.14 -0.018,0.28 -0.027,0.421 -0.089,1.292 -0.153,2.567 -0.203,3.805 -0.009,0.278 -0.016,0.553 -0.022,0.829 -0.014,1.077 0.002,2.126 0.019,3.135 0.009,0.409 0.016,0.814 0.028,1.209 0.025,0.815 0.065,1.598 0.124,2.344 0.034,0.521 0.072,1.021 0.117,1.503 0.13,1.501 0.293,2.794 0.458,3.807 0.159,1.109 0.321,1.812 0.365,1.984 0.025,0.103 0.181,-0.303 0.409,-1.084 0.198,-0.321 0.421,-0.924 0.602,-1.794 0.089,-0.424 0.193,-0.965 0.303,-1.605 0.157,-0.847 0.329,-1.796 0.515,-2.82 0.073,-0.51 0.154,-1.069 0.238,-1.673 0.102,-0.688 0.211,-1.421 0.306,-2.19 0.043,-0.343 0.091,-0.693 0.14,-1.05 0.075,-0.498 0.151,-1.01 0.22,-1.53 0.119,-0.924 0.232,-1.878 0.344,-2.854 0.131,-1.009 0.253,-2.039 0.369,-3.08 0.119,-1.056 0.228,-2.125 0.381,-3.189 0.182,-1.464 0.37,-2.927 0.513,-4.376 m 5.209,11.837 c 10e-4,1.059 0.034,2.089 0.069,3.082 0.014,0.396 0.03,0.788 0.045,1.173 0.037,0.801 0.088,1.572 0.155,2.308 0.041,0.507 0.087,0.996 0.142,1.466 0.147,1.449 0.325,2.711 0.505,3.729 0.152,0.971 0.307,1.642 0.381,1.93 0.04,0.171 0.167,-0.009 0.339,-0.448 0.204,0.043 0.402,-0.22 0.522,-0.799 0.059,-0.284 0.14,-0.728 0.237,-1.31 0.118,-0.681 0.254,-1.464 0.403,-2.331 0.075,-0.558 0.157,-1.194 0.249,-1.9 0.104,-0.759 0.221,-1.59 0.312,-2.471 0.04,-0.381 0.09,-0.773 0.141,-1.172 0.072,-0.564 0.151,-1.145 0.22,-1.739 0.113,-1.038 0.225,-2.119 0.338,-3.229 0.135,-1.131 0.26,-2.29 0.371,-3.465 0.116,-1.186 0.215,-2.387 0.375,-3.581 0.163,-1.465 0.332,-2.927 0.457,-4.373 0.111,-1.45 0.294,-2.864 0.451,-4.237 0.159,-1.373 0.275,-2.709 0.375,-3.982 0.091,-1.272 0.173,-2.477 0.311,-3.579 0.25,-2.213 0.361,-4.091 0.418,-5.418 0.059,-1.325 0.043,-2.101 0.043,-2.101 0,0 -0.346,0.677 -0.872,1.894 -0.526,1.217 -1.252,2.974 -2.002,5.12 -0.191,0.528 -0.394,1.08 -0.575,1.654 -0.17,0.596 -0.336,1.212 -0.5,1.849 -0.324,1.256 -0.652,2.585 -0.961,3.967 -0.313,1.383 -0.64,2.813 -0.82,4.286 -0.223,1.467 -0.404,2.965 -0.594,4.461 -0.181,1.424 -0.293,2.852 -0.359,4.265 -0.006,0.137 -0.011,0.274 -0.018,0.411 -0.07,1.267 -0.114,2.518 -0.145,3.735 -0.006,0.271 -0.011,0.539 -0.013,0.805 m 0.025,-12.484 c 0.122,-1.449 0.309,-2.864 0.472,-4.239 0.168,-1.372 0.288,-2.71 0.392,-3.982 0.097,-1.274 0.185,-2.481 0.322,-3.583 0.255,-2.213 0.368,-4.094 0.427,-5.42 0.06,-1.325 0.048,-2.102 0.048,-2.102 0,0 -0.35,0.677 -0.877,1.895 -0.527,1.216 -1.255,2.97 -2.011,5.117 -0.19,0.527 -0.392,1.075 -0.574,1.648 -0.175,0.595 -0.345,1.213 -0.509,1.852 -0.33,1.254 -0.66,2.583 -0.977,3.965 -0.32,1.38 -0.651,2.808 -0.839,4.28 -0.234,1.465 -0.425,2.962 -0.623,4.458 -0.191,1.438 -0.316,2.879 -0.391,4.306 -0.009,0.138 -0.016,0.276 -0.025,0.415 -0.077,1.279 -0.131,2.542 -0.173,3.77 -0.007,0.274 -0.011,0.547 -0.015,0.817 -0.008,1.068 0.015,2.108 0.042,3.108 0.01,0.404 0.023,0.802 0.036,1.19 0.031,0.81 0.076,1.586 0.139,2.328 0.037,0.512 0.082,1.009 0.13,1.485 0.138,1.474 0.312,2.752 0.482,3.766 0.156,1.041 0.313,1.73 0.374,1.961 0.031,0.133 0.174,-0.159 0.374,-0.768 0.199,-0.14 0.408,-0.571 0.562,-1.297 0.073,-0.355 0.166,-0.849 0.269,-1.457 0.137,-0.765 0.291,-1.63 0.46,-2.576 0.072,-0.533 0.154,-1.132 0.242,-1.787 0.104,-0.724 0.216,-1.505 0.309,-2.33 0.043,-0.363 0.092,-0.733 0.142,-1.115 0.075,-0.528 0.15,-1.074 0.217,-1.631 0.118,-0.981 0.23,-1.999 0.344,-3.04 0.13,-1.072 0.255,-2.165 0.368,-3.273 0.117,-1.122 0.224,-2.259 0.378,-3.386 0.173,-1.464 0.353,-2.927 0.485,-4.375 M 82.52,445.163 c 0.195,-0.686 0.441,-2.032 0.684,-3.193 0.118,-0.568 0.245,-1.249 0.371,-1.945 0.193,-1.016 0.402,-2.149 0.625,-3.333 0.073,-0.461 0.149,-0.955 0.227,-1.458 0.1,-0.614 0.201,-1.256 0.299,-1.913 0.045,-0.304 0.095,-0.616 0.143,-0.929 0.075,-0.434 0.146,-0.877 0.215,-1.324 0.124,-0.809 0.239,-1.64 0.352,-2.479 0.125,-0.889 0.245,-1.788 0.366,-2.694 0.123,-0.93 0.244,-1.865 0.389,-2.797 0.2,-1.466 0.406,-2.93 0.567,-4.379 0.153,-1.451 0.355,-2.867 0.535,-4.245 0.189,-1.375 0.322,-2.716 0.441,-3.993 0.116,-1.274 0.22,-2.48 0.357,-3.588 0.263,-2.219 0.385,-4.102 0.451,-5.43 0.066,-1.327 0.056,-2.104 0.056,-2.104 0,0 -0.35,0.679 -0.884,1.896 -0.534,1.218 -1.27,2.969 -2.034,5.112 -0.197,0.519 -0.391,1.063 -0.575,1.628 -0.188,0.597 -0.369,1.218 -0.54,1.862 -0.341,1.252 -0.692,2.578 -1.023,3.954 -0.335,1.377 -0.683,2.802 -0.902,4.269 -0.26,1.463 -0.478,2.955 -0.705,4.445 -0.219,1.479 -0.38,2.964 -0.488,4.431 -0.013,0.144 -0.023,0.288 -0.036,0.431 -0.109,1.317 -0.193,2.617 -0.262,3.878 -0.013,0.285 -0.022,0.574 -0.03,0.855 -0.032,1.098 -0.03,2.176 -0.032,3.199 0,0.424 0.003,0.859 0.009,1.266 0.014,0.829 0.044,1.663 0.094,2.417 0.028,0.534 0.058,1.127 0.095,1.62 0.11,1.553 0.26,3.209 0.411,4.217 0.163,1.242 0.33,2.53 0.348,2.53 h 0.003 c 0.011,0 0.194,-1.097 0.473,-2.206 m 268.803,126.316 c -0.169,-0.997 -0.21,-1.965 -0.153,-2.903 -3.966,-10.556 -11.871,-18.231 -22.167,-23.543 -27.242,-14.05 -55.166,2.565 -69.62,30.592 l -20.116,39.004 c -18.396,35.67 -12.452,65.038 14.401,78.887 28.614,14.756 56.239,-1.763 70.796,-29.985 2.728,-5.293 3.031,-5.88 1.268,-6.791 L 290.18,636.667 c -1.764,-0.908 -4.337,-0.249 -5.549,2.102 l -6.369,12.348 c -1.414,2.742 -3.489,2.914 -5.056,2.106 -1.568,-0.809 -2.428,-2.99 -1.316,-5.145 l 31.435,-60.953 c 1.011,-1.961 3.092,-2.627 4.856,-1.718 1.96,1.011 2.327,3.186 1.316,5.147 l -10.209,19.795 c -0.608,1.176 -0.732,3.345 0.936,3.957 l 37.752,17.733 c 0.978,0.504 1.972,0.023 2.376,-0.759 8.774,-17.013 12.939,-31.294 13.548,-43.217 z m 55.774,179.415 c 41.627,0 81.367,-8.214 117.714,-23.069 -2.878,-0.858 -5.296,-2.925 -6.651,-5.814 l -27.14,-57.832 -23.857,-50.837 -13.673,61.446 -12.883,58.076 c -1.044,5.39 -5.56,9.489 -10.826,9.489 h -0.2 l -43.112,-1.462 c -5.686,-0.175 -9.562,-5.107 -10.341,-9.686 l -8.559,-55.129 -10.038,-64.632 c -2.305,7.209 -5.566,15.039 -9.966,23.571 -1.705,3.307 -5.066,5.355 -8.766,5.355 -1.495,0 -2.997,-0.353 -4.357,-1.02 l -37.457,-17.595 c -0.664,-0.278 -1.284,-0.619 -1.86,-1.017 l -3.979,7.714 c 0.958,0.217 1.886,0.554 2.753,1 l 0.138,0.071 35.577,20.086 c 8.726,4.626 4.613,12.7 2.1,17.574 -0.012,0.022 -0.025,0.047 -0.035,0.069 -12.884,24.98 -33.967,39.894 -56.393,39.894 -8.559,0 -17.084,-2.159 -25.34,-6.415 -15.558,-8.024 -25.386,-20.811 -28.427,-36.978 -2.921,-15.546 0.72,-33.82 10.534,-52.845 l 2.467,-4.784 17.647,-34.219 c 12.75,-24.721 34.446,-40.08 56.62,-40.08 8.175,0 16.228,2.018 23.938,5.994 8.043,4.148 17.538,11.277 23.504,22.491 1.687,-0.96 3.667,-1.248 5.742,-1.248 h 0.234 l 36.487,0.656 c 5.362,0.156 10.03,4.087 10.635,9.484 l 2.741,27.591 1.335,0.01 4.577,-27.783 c 0.991,-5.022 5.536,-8.526 10.807,-8.526 h 0.208 l 29.948,0.737 30.502,-14.403 c 1.438,-0.678 2.971,-1.065 4.555,-1.065 4.145,0 7.958,2.376 9.734,6.094 0.706,-2.603 1.737,-5.071 3.063,-7.37 -13.108,0.86 -24.285,1.112 -32.943,1.112 -5.108,0 -10.022,-0.09 -14.603,-0.259 -11.625,-0.431 -24.533,-2.776 -39.463,-7.166 l 0.028,-0.14 -0.65,-0.041 -0.901,-0.271 c -24.203,-7.279 -48.81,-18.585 -66.777,-26.839 -3.258,-1.498 -6.342,-2.916 -9.219,-4.216 -38.185,-0.301 -107.533,-2.555 -169.511,-13.595 -28.028,-4.993 -54.551,-11.781 -75.999,-21.002 16.671,156.506 149.482,278.824 310.338,278.824 m 42.634,-181.964 -20.856,-0.62 c -1.322,-0.039 -2.671,0.804 -2.931,2.119 l -5.389,32.933 c -0.253,1.096 -1.156,1.732 -2.257,1.699 l -11.903,-0.353 c -0.882,-0.027 -1.739,-0.933 -1.92,-2.262 l -3.226,-32.529 c -0.174,-1.549 -1.691,-2.477 -2.794,-2.509 l -36.371,-1.08 c -1.984,-0.058 -3.133,1.452 -2.756,3.67 l 24.822,159.807 c 0.19,1.111 1.246,2.684 2.568,2.726 l 42.984,1.272 c 1.543,0.047 2.685,-1.242 2.95,-2.779 l 28.866,-129.711 -11.283,-24.04 c -1.301,-2.773 -1.402,-5.743 -0.504,-8.343 m 75.723,-30.611 c -14.374,6.747 -19.272,21.224 -10.466,39.99 l 14.429,30.744 c 2.997,6.389 1.7,10.896 -0.495,11.926 -1.197,0.562 -1.865,-0.343 -2.522,-1.741 l -29.979,-63.883 c -0.564,-1.198 -2.123,-1.929 -3.521,-1.272 l -34.138,16.021 c -1.397,0.656 -1.927,2.122 -1.178,3.72 l 67.925,144.738 c 0.655,1.397 2.121,1.926 3.319,1.366 l 44.52,-20.892 c 17.569,-8.246 32.16,-31.658 20.729,-56.015 -5.058,-10.78 -16.33,-29.607 -36.608,-23.501 l -0.186,-0.402 c 21.076,-18.416 14.987,-31.392 5.431,-51.755 -1.124,-2.397 -1.251,-5.259 2.298,-9.118 0.717,-1.067 0.86,-2.84 0.486,-3.638 -12.742,-27.151 -33.456,-19.38 -40.044,-16.288 m 190.324,-53.276 c -27.346,15.631 -55.455,27.28 -82.639,35.945 -24.151,7.697 -47.571,13.041 -69.083,16.726 3.153,3.408 6.144,7.805 8.797,13.453 1.618,3.461 1.163,8.233 -1.104,11.606 l -0.344,0.512 -0.418,0.455 c -0.292,0.319 -0.499,0.577 -0.641,0.775 7.469,15.926 13.964,30.226 4.793,46.16 -0.195,0.337 -0.384,0.675 -0.593,1.013 8.737,2.827 18.652,10.35 26.88,27.886 7.338,15.635 5.665,31.431 -1.089,44.133 60.892,-48.146 103.474,-118.469 115.441,-198.664 m 34.164,-63.347 -2.324,5.011 -1.667,3.594 c -0.429,0.924 -0.859,1.848 -1.267,2.784 l -0.106,0.255 c -0.256,0.619 -0.503,1.223 -0.735,1.813 1.204,6.556 1.949,16.374 -0.061,29.068 l -0.865,5.466 -3.703,0.815 c -2.568,1.728 -5.151,3.407 -7.741,5.06 -8.167,73.277 -40.652,141.142 -93.552,194.04 -61.655,61.657 -143.63,95.611 -230.824,95.611 -87.194,0 -169.17,-33.954 -230.825,-95.611 -55.511,-55.508 -88.552,-127.494 -94.59,-204.926 -3.907,-2.189 -7.565,-4.488 -10.917,-6.909 l -1.6,-1.156 -0.891,-1.759 c -1.005,-1.988 -1.243,-4.181 -0.716,-6.248 l -1.083,-0.506 -11.7,-5.47 11.601,-0.992 0.957,-0.081 -0.961,-5.314 -0.698,-3.858 0.74,0.363 1.237,0.608 c 0.016,-0.608 0.037,-1.234 0.069,-1.884 0.092,-1.496 0.204,-3.043 0.342,-4.513 0.139,-1.707 0.338,-3.405 0.596,-5.079 l 0.101,-0.646 c 0.205,-1.307 0.411,-2.612 0.646,-3.896 0.284,-1.774 0.688,-3.404 1.041,-4.833 0.36,-1.46 0.734,-2.863 1.08,-4.106 0.273,-1.022 0.576,-2.017 0.905,-2.973 l -1.939,0.198 10.482,-25.931 c -0.078,-0.154 -0.158,-0.307 -0.237,-0.461 -0.979,-1.912 -1.976,-3.811 -2.976,-5.709 l -3.739,-7.125 -1.552,-2.958 2.38,-0.837 6.477,-2.279 c 1.95,-0.686 3.573,-1.21 5.066,-1.632 1.498,-0.432 2.968,-0.802 4.416,-1.158 13.66,-53.561 40.832,-102.883 79.82,-143.798 l -3.05,-5.425 c -3.02,-5.37 -1.264,-11.893 3.998,-14.85 l 32.869,-18.485 c 1.599,-0.901 3.414,-1.375 5.245,-1.375 1.828,0 3.585,0.474 5.137,1.31 2.595,-1.899 5.215,-3.753 7.858,-5.571 2.9,-4.964 7.275,-9.22 13.064,-12.477 5.244,-2.949 10.709,-4.756 16.018,-5.35 47.146,-25.575 100.19,-39.169 155.329,-39.169 83.501,0 162.201,31.158 222.868,87.944 l 1.521,-1.625 c 2.124,-2.269 5.093,-3.57 8.149,-3.57 2.656,0 5.165,0.978 7.057,2.755 l 12.728,11.914 44.914,42.037 c 4.238,3.975 4.457,10.658 0.486,14.898 l -2.14,2.286 -10.252,10.955 c 21.589,38.646 35.055,81.37 39.483,126.04 7.256,4.939 11.479,8.201 11.852,8.491 l 3.389,2.633 2.705,2.1 -1.419,2.032 z"
           style="fill:#ffffff;fill-opacity:1;fill-rule:nonzero;stroke:none"
           id="path1989"
           inkscape:connector-curvature="0" /><path
           d="m 125.991,441.499 c 0.009,-0.059 0.108,-0.784 0.281,-2.049 0.076,-0.651 0.166,-1.442 0.27,-2.348 0.112,-0.909 0.242,-1.929 0.326,-3.039 0.086,-1.107 0.248,-2.308 0.362,-3.572 0.065,-0.786 0.132,-1.605 0.2,-2.437 0.645,4.122 0.799,7.85 0.365,10.604 -0.17,1.082 -0.802,2.023 -1.804,2.841"
           style="fill:#ffffff;fill-opacity:1;fill-rule:nonzero;stroke:none"
           id="path1991"
           inkscape:connector-curvature="0" /><path
           d="m 176.309,444.073 -10.746,-1.238 -10.738,-1.292 c -7.154,-0.919 -14.315,-1.763 -21.461,-2.766 7.204,0.41 14.393,0.978 21.588,1.47 l 10.785,0.827 10.781,0.88 c 7.185,0.589 14.367,1.222 21.546,1.875 5.626,0.49 11.248,1.031 16.87,1.57 0.898,1.08 1.79,2.11 2.672,3.082 -6.601,-0.67 -13.202,-1.325 -19.796,-2.047 -7.171,-0.758 -14.339,-1.537 -21.501,-2.361"
           style="fill:#ffffff;fill-opacity:1;fill-rule:nonzero;stroke:none"
           id="path1993"
           inkscape:connector-curvature="0" /><path
           d="m 135.383,434.484 c 1.024,-1.248 2.212,-2.347 3.439,-3.386 2.473,-2.064 5.173,-3.841 7.969,-5.437 2.8,-1.595 5.725,-2.975 8.749,-4.12 3.021,-1.152 6.134,-2.089 9.331,-2.719 l 0.125,-0.024 0.103,0.01 1.995,0.204 c 0.67,0.051 1.327,0.145 1.968,0.296 1.291,0.26 2.594,0.5 3.84,0.882 1.264,0.341 2.527,0.691 3.751,1.128 1.236,0.414 2.479,0.812 3.68,1.306 1.205,0.48 2.432,0.918 3.613,1.449 1.188,0.521 2.39,1.013 3.566,1.556 l 3.519,1.644 3.476,1.737 c 1.161,0.572 2.291,1.204 3.432,1.815 1.144,0.605 2.266,1.253 3.388,1.9 1.127,0.635 2.247,1.286 3.35,1.969 1.104,0.673 2.22,1.331 3.303,2.048 0.364,0.237 0.732,0.473 1.099,0.705 0.866,1.328 1.743,2.618 2.632,3.832 0.845,1.167 1.7,2.26 2.557,3.319 -0.51,-0.393 -1.026,-0.779 -1.545,-1.165 -0.993,-0.778 -2.056,-1.477 -3.09,-2.209 -1.029,-0.743 -2.115,-1.411 -3.173,-2.114 -1.059,-0.708 -2.153,-1.36 -3.235,-2.03 -1.08,-0.678 -2.178,-1.324 -3.284,-1.958 -1.102,-0.642 -2.201,-1.288 -3.326,-1.889 -1.123,-0.601 -2.224,-1.25 -3.357,-1.832 l -3.391,-1.77 -3.435,-1.677 c -1.145,-0.555 -2.316,-1.056 -3.472,-1.587 -1.154,-0.544 -2.342,-0.989 -3.514,-1.481 -1.172,-0.502 -2.36,-0.931 -3.551,-1.366 -1.184,-0.461 -2.389,-0.832 -3.596,-1.196 -1.202,-0.408 -2.422,-0.666 -3.642,-0.949 -0.608,-0.164 -1.218,-0.268 -1.83,-0.33 l -1.745,-0.232 c -3.037,0.51 -6.05,1.264 -8.992,2.261 -2.985,1.009 -5.909,2.228 -8.747,3.624 -2.83,1.413 -5.58,3.013 -8.119,4.905 -1.271,0.947 -2.472,1.981 -3.573,3.117 -0.536,0.579 -1.051,1.182 -1.476,1.849 -0.413,0.669 -0.762,1.406 -0.811,2.208 -0.013,-0.804 0.286,-1.585 0.657,-2.296 0.382,-0.712 0.859,-1.364 1.362,-1.997"
           style="fill:#ffffff;fill-opacity:1;fill-rule:nonzero;stroke:none"
           id="path1995"
           inkscape:connector-curvature="0" /><path
           d="m 593.346,393.842 c -7.194,-0.314 -17.466,-0.802 -29.779,-1.551 -6.158,-0.361 -12.829,-0.761 -19.877,-1.259 -7.048,-0.478 -14.486,-0.963 -22.169,-1.571 -7.683,-0.606 -15.632,-1.139 -23.692,-1.848 -8.064,-0.679 -16.257,-1.37 -24.448,-2.061 -8.187,-0.756 -16.373,-1.513 -24.431,-2.257 -8.059,-0.723 -15.978,-1.584 -23.649,-2.337 -7.671,-0.745 -15.076,-1.577 -22.102,-2.338 -7.026,-0.742 -13.663,-1.521 -19.789,-2.241 -12.255,-1.421 -22.453,-2.737 -29.59,-3.69 -3.569,-0.49 -6.371,-0.877 -8.283,-1.142 -1.91,-0.27 -2.93,-0.414 -2.93,-0.414 0,0 1.031,0.037 2.957,0.106 1.93,0.074 4.756,0.185 8.354,0.324 7.193,0.314 17.467,0.805 29.779,1.554 6.158,0.365 12.829,0.761 19.878,1.261 7.048,0.482 14.486,0.96 22.168,1.57 7.684,0.603 15.631,1.144 23.693,1.843 8.064,0.68 16.256,1.369 24.448,2.059 8.186,0.754 16.373,1.509 24.43,2.254 8.062,0.712 15.98,1.582 23.651,2.333 7.671,0.746 15.076,1.571 22.101,2.334 7.028,0.746 13.664,1.522 19.789,2.245 12.254,1.42 22.455,2.738 29.591,3.69 3.57,0.495 6.37,0.883 8.281,1.147 1.912,0.271 2.929,0.416 2.929,0.416 0,0 -1.027,-0.039 -2.956,-0.106 -1.929,-0.074 -4.756,-0.183 -8.354,-0.321"
           style="fill:#ffffff;fill-opacity:1;fill-rule:nonzero;stroke:none"
           id="path1997"
           inkscape:connector-curvature="0" /><path
           d="m 267.312,398.584 c 4.88,0 8.851,-3.971 8.851,-8.851 0,-4.88 -3.971,-8.85 -8.851,-8.85 -4.88,0 -8.852,3.97 -8.852,8.85 0,4.88 3.972,8.851 8.852,8.851 m 0,-19.094 c 5.647,0 10.242,4.595 10.242,10.243 0,5.649 -4.595,10.244 -10.242,10.244 -5.647,0 -10.243,-4.595 -10.243,-10.244 0,-5.648 4.596,-10.243 10.243,-10.243"
           style="fill:#ffffff;fill-opacity:1;fill-rule:nonzero;stroke:none"
           id="path1999"
           inkscape:connector-curvature="0" /><path
           d="m 302.754,399.303 c -1.034,4.532 -2.779,8.76 -5.108,12.532 l -7.579,-4.762 c 1.875,-2.985 3.236,-6.271 4.046,-9.771 z"
           style="fill:#ffffff;fill-opacity:1;fill-rule:nonzero;stroke:none"
           id="path2001"
           inkscape:connector-curvature="0" /><path
           d="m 287.64,356.738 c 3.635,2.66 6.802,6.018 9.352,9.885 l -7.433,4.991 c -1.989,-2.96 -4.415,-5.477 -7.214,-7.484 z"
           style="fill:#ffffff;fill-opacity:1;fill-rule:nonzero;stroke:none"
           id="path2003"
           inkscape:connector-curvature="0" /><path
           d="m 294.814,384.566 8.485,-1.282 c 0.345,2.186 0.533,3.944 0.533,6.808 h -8.478 c 0,-2.864 -0.26,-3.774 -0.54,-5.526"
           style="fill:#ffffff;fill-opacity:1;fill-rule:nonzero;stroke:none"
           id="path2005"
           inkscape:connector-curvature="0" /><path
           d="m 237.214,412.204 7.526,-4.846 c 0.954,1.482 2.036,2.88 3.215,4.157 l -6.617,6.118 c -1.517,-1.671 -2.897,-3.489 -4.124,-5.429"
           style="fill:#ffffff;fill-opacity:1;fill-rule:nonzero;stroke:none"
           id="path2007"
           inkscape:connector-curvature="0" /><path
           d="m 285.223,424.342 c -1.957,1.204 -4.026,2.216 -6.183,3.012 l -3.12,-8.621 c 1.585,-0.573 3.135,-1.313 4.605,-2.197 z"
           style="fill:#ffffff;fill-opacity:1;fill-rule:nonzero;stroke:none"
           id="path2009"
           inkscape:connector-curvature="0" /><path
           d="m 234.142,373.14 c 0.895,-2.112 1.955,-4.124 3.163,-6.017 L 244.81,372 c -0.955,1.47 -1.794,3.039 -2.496,4.664 z"
           style="fill:#ffffff;fill-opacity:1;fill-rule:nonzero;stroke:none"
           id="path2011"
           inkscape:connector-curvature="0" /><path
           d="m 241.496,400.701 -8.391,2.935 c -1.431,-4.154 -2.235,-8.632 -2.298,-13.308 l 8.849,-0.122 c 0.05,3.617 0.669,7.148 1.84,10.495"
           style="fill:#ffffff;fill-opacity:1;fill-rule:nonzero;stroke:none"
           id="path2013"
           inkscape:connector-curvature="0" /><path
           d="m 268.996,420.184 0.612,9.2 c -0.761,0.052 -1.525,0.086 -2.296,0.086 -3.946,0 -7.743,-0.694 -11.306,-1.959 l 3.007,-8.67 c 3.207,1.111 6.634,1.564 9.983,1.343"
           style="fill:#ffffff;fill-opacity:1;fill-rule:nonzero;stroke:none"
           id="path2015"
           inkscape:connector-curvature="0" /><path
           d="m 271.132,359.514 1.385,-9.108 c 2.3,0.36 4.529,0.955 6.671,1.759 l -3.154,8.608 c -1.593,-0.583 -3.242,-1.005 -4.902,-1.259"
           style="fill:#ffffff;fill-opacity:1;fill-rule:nonzero;stroke:none"
           id="path2017"
           inkscape:connector-curvature="0" /><path
           d="m 655.864,422.7 c 3.248,0 5.892,-3.36 5.892,-7.491 0,-4.131 -2.644,-7.491 -5.892,-7.491 -3.25,0 -5.892,3.36 -5.892,7.491 0,4.131 2.642,7.491 5.892,7.491 m 0,-16.028 c 3.826,0 6.938,3.83 6.938,8.537 0,4.709 -3.112,8.537 -6.938,8.537 -3.826,0 -6.939,-3.828 -6.939,-8.537 0,-4.707 3.113,-8.537 6.939,-8.537"
           style="fill:#ffffff;fill-opacity:1;fill-rule:nonzero;stroke:none"
           id="path2019"
           inkscape:connector-curvature="0" /><path
           d="m 655.864,452.604 c 15.104,0 27.393,-16.776 27.393,-37.395 0,-20.619 -12.289,-37.395 -27.393,-37.395 -15.105,0 -27.394,16.776 -27.394,37.395 0,20.619 12.289,37.395 27.394,37.395 m -29.545,-37.395 c 0,-21.805 13.254,-39.544 29.545,-39.544 16.291,0 29.544,17.739 29.544,39.544 0,21.806 -13.253,39.545 -29.544,39.546 -16.291,0 -29.545,-17.74 -29.545,-39.546"
           style="fill:#ffffff;fill-opacity:1;fill-rule:nonzero;stroke:none"
           id="path2021"
           inkscape:connector-curvature="0" /><path
           d="m 651.051,388.794 -1.943,-5.088 c 2.189,-0.791 4.461,-0.774 6.756,-0.774 h 0.026 l -0.026,5.37 c -1.629,0 -3.249,-0.073 -4.813,0.492"
           style="fill:#ffffff;fill-opacity:1;fill-rule:nonzero;stroke:none"
           id="path2023"
           inkscape:connector-curvature="0" /><path
           d="m 631.529,406.31 c 0.923,-4.371 2.492,-8.379 4.664,-11.914 l 4.88,3 c -1.828,2.973 -3.152,6.371 -3.939,10.097 z"
           style="fill:#ffffff;fill-opacity:1;fill-rule:nonzero;stroke:none"
           id="path2025"
           inkscape:connector-curvature="0" /><path
           d="m 630.623,415.337 2.736,0.529 h 2.409 v -0.557 c 0,1.805 0.422,3.626 0.676,5.37 l -5.477,0.848 c -0.289,-1.978 -0.386,-3.978 -0.396,-6.018 0,-0.071 0.017,-0.051 0.017,-0.12 z"
           style="fill:#ffffff;fill-opacity:1;fill-rule:nonzero;stroke:none"
           id="path2027"
           inkscape:connector-curvature="0" /><path
           d="m 665.188,384.409 c 3.701,1.916 7.047,5.008 9.676,8.942 l -4.762,3.182 c -2.093,-3.132 -4.703,-5.565 -7.546,-7.036 z"
           style="fill:#ffffff;fill-opacity:1;fill-rule:nonzero;stroke:none"
           id="path2029"
           inkscape:connector-curvature="0" /><path
           d="m 674.838,415.209 c 0,-1.855 0.175,-3.704 -0.089,-5.5 l 5.38,-0.832 c 0.305,2.07 0.029,4.201 0.029,6.332 v 0.113 z"
           style="fill:#ffffff;fill-opacity:1;fill-rule:nonzero;stroke:none"
           id="path2031"
           inkscape:connector-curvature="0" /><path
           d="m 660.631,441.762 1.928,5.634 c -2.168,0.774 -4.421,1.406 -6.695,1.406 h -0.084 l 0.084,-5.967 c 1.615,0 3.219,-0.52 4.767,-1.073"
           style="fill:#ffffff;fill-opacity:1;fill-rule:nonzero;stroke:none"
           id="path2033"
           inkscape:connector-curvature="0" /><path
           d="m 680.185,424.169 c -0.928,4.368 -2.503,8.375 -4.683,11.907 l -4.875,-3.008 c 1.833,-2.971 3.165,-6.364 3.956,-10.089 z"
           style="fill:#ffffff;fill-opacity:1;fill-rule:nonzero;stroke:none"
           id="path2035"
           inkscape:connector-curvature="0" /><path
           d="m 649.13,440.9 -2.65,5.079 c -3.694,-1.926 -7.03,-5.025 -9.651,-8.961 l 4.769,-3.174 c 2.087,3.135 4.691,5.576 7.532,7.056"
           style="fill:#ffffff;fill-opacity:1;fill-rule:nonzero;stroke:none"
           id="path2037"
           inkscape:connector-curvature="0" /><path
           d="m 412.769,650.127 c -0.532,3.073 -1.033,5.042 -1.694,5.023 -0.661,-0.02 -1.055,-1.575 -1.391,-5.115 l -2.245,-21.027 c -0.19,-1.108 0.286,-2.198 1.387,-2.165 7.054,0.209 7.715,0.229 7.436,2.205 z"
           style="fill:#ffffff;fill-opacity:1;fill-rule:nonzero;stroke:none"
           id="path2039"
           inkscape:connector-curvature="0" /><path
           d="m 547.484,660.015 c -0.997,0.467 -1.878,0.149 -2.44,-1.047 l -8.618,-18.367 c -0.656,-1.398 -0.445,-1.984 0.553,-2.454 4.792,-2.248 7.415,3.343 11.725,12.527 2.154,4.591 0.577,8.498 -1.22,9.341"
           style="fill:#ffffff;fill-opacity:1;fill-rule:nonzero;stroke:none"
           id="path2041"
           inkscape:connector-curvature="0" /><path
           d="m 258.558,262.645 c 4.614,-2.594 7.641,2.788 12.613,11.628 2.485,4.422 1.2,8.434 -0.53,9.405 -0.959,0.543 -1.86,0.289 -2.511,-0.864 l -9.945,-17.683 c -0.757,-1.344 -0.588,-1.946 0.373,-2.486"
           style="fill:#ffffff;fill-opacity:1;fill-rule:nonzero;stroke:none"
           id="path2043"
           inkscape:connector-curvature="0" /><path
           d="m 388.139,209.865 c -0.236,3.109 -0.543,5.119 -1.202,5.161 -0.661,0.045 -1.205,-1.466 -1.876,-4.957 l -4.251,-20.715 c -0.294,-1.084 0.073,-2.214 1.173,-2.288 7.04,-0.467 7.703,-0.511 7.614,1.485 z"
           style="fill:#ffffff;fill-opacity:1;fill-rule:nonzero;stroke:none"
           id="path2045"
           inkscape:connector-curvature="0" /></g></g></g></svg>